<svg width="19" height="18" viewBox="0 0 19 18" fill="none" xmlns="http://www.w3.org/2000/svg">
<path d="M16.0696 14.1294C15.1825 14.1294 14.4331 14.728 14.2026 15.5423H12.8371C12.3276 14.0442 10.2033 14.0451 9.69437 15.5423H8.31582C7.80626 14.0442 5.682 14.0451 5.17304 15.5423H3.80757C3.16219 13.4049 0.0494225 13.8124 0 16.07C0.0496335 18.3279 3.16258 18.7346 3.80761 16.5976H5.17307C5.6826 18.0958 7.80689 18.0948 8.31585 16.5976H9.69441C10.2039 18.0958 12.3282 18.0948 12.8372 16.5976H14.2026C14.8483 18.7353 17.9608 18.3272 18.0102 16.0699C18.0102 14.9999 17.1396 14.1294 16.0696 14.1294Z" fill="#5691AE"/>
<path d="M11.3032 5.11747L5.65159 1.85449L3.35342 3.18134L9.00503 6.44435L11.3032 5.11747Z" fill="#5691AE"/>
<path d="M14.6566 3.18133L9.26883 0.0707041C9.10558 -0.023568 8.90444 -0.023568 8.74119 0.0707041L6.70685 1.24524L12.3585 4.50821L14.6566 3.18133Z" fill="#5691AE"/>
<path d="M3.08957 10.7735L8.4774 13.8841V7.35819L2.82575 4.09521V10.3165C2.82575 10.505 2.92632 10.6792 3.08957 10.7735Z" fill="#5691AE"/>
<path d="M9.53291 7.35819V13.8841L14.9207 10.7735C15.084 10.6792 15.1846 10.505 15.1846 10.3165V4.09521L12.8864 5.42206V6.68207C12.8605 7.38119 11.8569 7.38105 11.8311 6.68207V6.03134L9.53291 7.35819Z" fill="#5691AE"/>
</svg>
