<svg width="21" height="22" viewBox="0 0 21 22" fill="none" xmlns="http://www.w3.org/2000/svg">
<path d="M13.0335 2.3364C14.0912 2.3364 14.7662 1.92574 14.7662 1.6433C14.7662 1.36086 14.0912 0.950195 13.0335 0.950195C11.9956 0.950195 11.3298 1.34492 11.3052 1.62701L11.3337 1.75697C11.4802 2.02416 12.111 2.3364 13.0335 2.3364Z" fill="#5691AE"/>
<path d="M11.5531 2.7546L12.374 6.49493H15.799L14.9455 2.51514C14.5088 2.83223 13.8278 3.02942 13.0335 3.02942C12.4659 3.02942 11.9575 2.92788 11.5531 2.7546Z" fill="#5691AE"/>
<path d="M19.2908 13.4258H15.8395L15.4132 15.5051H17.7788L18.4805 17.3761L19.2908 13.4258Z" fill="#5691AE"/>
<path d="M20.7707 6.21234C20.3635 6.39012 19.8478 6.49478 19.2715 6.49478C18.4813 6.49478 17.8031 6.29967 17.3661 5.98535L16.8349 8.57409H20.2862L20.7707 6.21234Z" fill="#5691AE"/>
<path d="M19.4328 12.7331L20.1439 9.26758H16.6926L15.9818 12.7331H19.4328Z" fill="#5691AE"/>
<path d="M15.0064 18.278H16.6054H18.0782L17.2985 16.1987H14.3133L13.5335 18.278H15.0064Z" fill="#5691AE"/>
<path d="M15.5587 11.3467H13.4389L14.3517 15.5053H14.7055L15.5587 11.3467Z" fill="#5691AE"/>
<path d="M13.2868 10.6535H15.7009L16.185 8.29418L15.9476 7.18799H12.5261L13.2868 10.6535Z" fill="#5691AE"/>
<path d="M12.5334 18.9707H11.5409L10.7612 21.05H15.3058L14.5261 18.9707H12.5334Z" fill="#5691AE"/>
<path d="M12.7933 18.2777L13.7127 15.8258L12.4253 9.96045H2.28102C2.25884 10.7901 2.16146 11.6187 1.9816 12.4282L0.970713 16.9785C0.926354 17.176 0.904175 17.3787 0.904175 17.5808C0.904175 19.1115 2.14968 20.357 3.6804 20.357H10.2808L11.0606 18.2777H12.7933ZM9.91451 15.5053C9.91451 16.4621 9.13858 17.238 8.18175 17.238H7.48865V19.3173H7.1421H6.79555H6.10244C5.14562 19.3173 4.36969 18.5414 4.36969 17.5846V17.238H5.40934C5.97872 17.238 6.47984 17.5167 6.79555 17.9405V15.1587H6.10244C5.14562 15.1587 4.36969 14.3828 4.36969 13.426V13.0794H5.40934C5.97872 13.0794 6.47984 13.358 6.79555 13.7819V13.0794V12.7329C6.79555 11.776 7.57147 11.0001 8.5283 11.0001H9.56796V11.3467C9.56796 12.3035 8.79203 13.0794 7.8352 13.0794H7.48865V15.8612C7.80436 15.4373 8.30547 15.1587 8.87485 15.1587H9.91451V15.5053Z" fill="#5691AE"/>
<path d="M19.0783 18.9707H17.0856L16.3059 21.05H20.8506L20.0708 18.9707H19.0783Z" fill="#5691AE"/>
<path d="M1.25073 9.26755H12.2731L11.9689 7.88135H1.25073C1.05943 7.88135 0.904175 8.0366 0.904175 8.2279V8.921C0.904175 9.1123 1.05943 9.26755 1.25073 9.26755Z" fill="#5691AE"/>
<path d="M15.2664 18.9707L15.806 20.4092L16.3455 18.9707H15.2664Z" fill="#5691AE"/>
<path d="M11.3963 5.27449L10.673 5.17121C10.2527 5.11091 9.91479 4.8056 9.81187 4.3939L9.70963 3.98462C9.67082 3.83075 9.53255 3.72263 9.37313 3.72263H8.95658C8.56012 3.72263 8.20387 3.50222 8.02643 3.14805L7.71627 2.52807C7.6577 2.40989 7.53918 2.33643 7.4068 2.33643H6.27878C6.12491 2.33643 5.98767 2.4397 5.94574 2.58768L5.50597 4.12602C5.40408 4.48192 5.11748 4.75917 4.75846 4.84892L4.16377 4.99759C4.03936 5.02878 3.94268 5.12512 3.91183 5.24988L3.79712 5.70768C3.68172 6.17102 3.26655 6.49504 2.78866 6.49504H2.48508C2.32567 6.49504 2.18774 6.60316 2.14858 6.75773L2.0408 7.18814H11.8163L11.3963 5.27449ZM5.06273 6.49504H4.36963V5.80194H5.06273V6.49504ZM7.14204 3.72263H6.44893V3.02953H7.14204V3.72263ZM8.18169 5.45539H7.48859V4.76228H8.18169V5.45539ZM10.261 6.49504H9.56789V5.80194H10.261V6.49504Z" fill="#5691AE"/>
<path d="M19.2714 4.41553C18.2137 4.41553 17.5387 4.82619 17.5387 5.10863C17.5387 5.39107 18.2137 5.80173 19.2714 5.80173C20.2147 5.80173 20.8503 5.47563 20.9771 5.20462L21 5.09373C20.9778 4.81198 20.3114 4.41553 19.2714 4.41553Z" fill="#5691AE"/>
</svg>
