<svg width="22" height="22" viewBox="0 0 22 22" fill="none" xmlns="http://www.w3.org/2000/svg">
<path d="M11.9226 1.5482L1.86662 0.020132C1.39996 -0.0530688 0.92416 0.0750325 0.567306 0.376986C0.210452 0.688089 0 1.13644 0 1.6031V20.8824C0 21.3856 0.411754 21.7974 0.91501 21.7974H3.88879V16.9936C3.88879 16.106 4.6025 15.3923 5.49006 15.3923H7.77758C8.66514 15.3923 9.37885 16.106 9.37885 16.9936V21.7974H13.2676V3.13116C13.2676 2.34426 12.7003 1.6763 11.9226 1.5482ZM5.03255 13.3335H3.66004C3.28122 13.3335 2.97378 13.0261 2.97378 12.6473C2.97378 12.2685 3.28122 11.961 3.66004 11.961H5.03255C5.41137 11.961 5.71881 12.2685 5.71881 12.6473C5.71881 13.0261 5.41137 13.3335 5.03255 13.3335ZM5.03255 10.5885H3.66004C3.28122 10.5885 2.97378 10.2811 2.97378 9.90224C2.97378 9.52342 3.28122 9.21598 3.66004 9.21598H5.03255C5.41137 9.21598 5.71881 9.52342 5.71881 9.90224C5.71881 10.2811 5.41137 10.5885 5.03255 10.5885ZM5.03255 7.84346H3.66004C3.28122 7.84346 2.97378 7.53602 2.97378 7.15721C2.97378 6.77839 3.28122 6.47095 3.66004 6.47095H5.03255C5.41137 6.47095 5.71881 6.77839 5.71881 7.15721C5.71881 7.53602 5.41137 7.84346 5.03255 7.84346ZM5.03255 5.09844H3.66004C3.28122 5.09844 2.97378 4.79099 2.97378 4.41218C2.97378 4.03336 3.28122 3.72592 3.66004 3.72592H5.03255C5.41137 3.72592 5.71881 4.03336 5.71881 4.41218C5.71881 4.79099 5.41137 5.09844 5.03255 5.09844ZM9.6076 13.3335H8.23509C7.85627 13.3335 7.54883 13.0261 7.54883 12.6473C7.54883 12.2685 7.85627 11.961 8.23509 11.961H9.6076C9.98642 11.961 10.2939 12.2685 10.2939 12.6473C10.2939 13.0261 9.98642 13.3335 9.6076 13.3335ZM9.6076 10.5885H8.23509C7.85627 10.5885 7.54883 10.2811 7.54883 9.90224C7.54883 9.52342 7.85627 9.21598 8.23509 9.21598H9.6076C9.98642 9.21598 10.2939 9.52342 10.2939 9.90224C10.2939 10.2811 9.98642 10.5885 9.6076 10.5885ZM9.6076 7.84346H8.23509C7.85627 7.84346 7.54883 7.53602 7.54883 7.15721C7.54883 6.77839 7.85627 6.47095 8.23509 6.47095H9.6076C9.98642 6.47095 10.2939 6.77839 10.2939 7.15721C10.2939 7.53602 9.98642 7.84346 9.6076 7.84346ZM9.6076 5.09844H8.23509C7.85627 5.09844 7.54883 4.79099 7.54883 4.41218C7.54883 4.03336 7.85627 3.72592 8.23509 3.72592H9.6076C9.98642 3.72592 10.2939 4.03336 10.2939 4.41218C10.2939 4.79099 9.98642 5.09844 9.6076 5.09844Z" fill="#5691AE"/>
<path d="M20.6975 9.75783L14.1826 8.39355V21.7975H20.359C21.2419 21.7975 21.9602 21.0792 21.9602 20.1963V11.3225C21.9602 10.5667 21.4451 9.92345 20.6975 9.75783ZM18.5289 19.0525H17.1564C16.7776 19.0525 16.4702 18.7451 16.4702 18.3662C16.4702 17.9874 16.7776 17.68 17.1564 17.68H18.5289C18.9078 17.68 19.2152 17.9874 19.2152 18.3662C19.2152 18.7451 18.9078 19.0525 18.5289 19.0525ZM18.5289 16.3075H17.1564C16.7776 16.3075 16.4702 16 16.4702 15.6212C16.4702 15.2424 16.7776 14.935 17.1564 14.935H18.5289C18.9078 14.935 19.2152 15.2424 19.2152 15.6212C19.2152 16 18.9078 16.3075 18.5289 16.3075ZM18.5289 13.5624H17.1564C16.7776 13.5624 16.4702 13.255 16.4702 12.8762C16.4702 12.4974 16.7776 12.1899 17.1564 12.1899H18.5289C18.9078 12.1899 19.2152 12.4974 19.2152 12.8762C19.2152 13.255 18.9078 13.5624 18.5289 13.5624Z" fill="#5691AE"/>
</svg>
