<svg width="349" height="254" viewBox="0 0 349 254" fill="none" xmlns="http://www.w3.org/2000/svg">
<ellipse cx="174.137" cy="245.038" rx="174.137" ry="8.96009" fill="#5691AF" fill-opacity="0.19"/>
<path d="M117.417 234.229L119.342 234.229L126.858 231.172L130.887 234.229H130.887C133.164 234.229 135.347 235.133 136.957 236.743C138.567 238.353 139.471 240.536 139.471 242.813V243.092L117.417 243.092L117.417 234.229Z" fill="#2F2E41"/>
<path d="M87.0667 234.229L88.9918 234.229L96.5082 231.172L100.537 234.229H100.537C102.814 234.229 104.997 235.133 106.607 236.743C108.217 238.353 109.121 240.536 109.122 242.813V243.092L87.0671 243.092L87.0667 234.229Z" fill="#2F2E41"/>
<path d="M87.512 0.854225C86.8155 1.30644 85.4225 2.4621 84.328 3.41678C83.2832 4.37146 81.4424 5.57736 80.1987 6.13007C77.1142 7.48672 76.7659 8.59213 77.8107 13.4158C78.2584 15.5763 78.7559 17.5359 78.9052 17.7369C79.0544 17.9882 79.9002 17.2345 80.8454 16.1291C83.1837 13.4158 88.905 9.59706 93.88 7.48672C96.1188 6.53204 97.9596 5.62761 97.9596 5.47687C97.9596 4.92416 89.8005 3.98487e-05 88.905 3.98487e-05C88.8055 3.98487e-05 88.1587 0.402009 87.512 0.854225Z" fill="#068EB0"/>
<path d="M103.949 7.37327L70.8137 27.7931L69.6904 27.2259L70.8137 25.8078L78.9572 16.7324L80.9228 13.3291L97.7715 5.38801L112.654 3.11914L103.949 7.37327Z" fill="#3BB0D7" stroke="#3AB0D7"/>
<path d="M106.465 5.77778C103.58 7.33541 100.893 8.8428 100.495 9.24477C100.048 9.64674 96.8139 11.4054 93.2318 13.164C85.6698 16.9827 81.5902 19.4447 74.9734 24.1679C72.3367 26.0772 69.9984 27.6349 69.7994 27.6349C69.6501 27.6349 70.5456 26.3285 71.8392 24.7206L74.2272 21.8566L71.5904 24.4191C68.8044 27.1826 68.7049 28.1373 71.1924 28.1373C73.3317 28.1373 80.446 26.1777 81.242 25.3738C81.7395 24.8211 82.1872 25.4743 83.6798 28.7905C86.615 35.4733 87.1623 39.0407 85.4708 40.6486C84.8738 41.2013 84.4758 41.8545 84.5753 42.1057C84.9733 43.0604 102.834 64.3789 103.232 64.3789C103.48 64.3789 104.923 44.2663 104.923 43.6634C104.923 43.4122 105.819 41.123 105.271 41.123C104.127 41.123 105.222 40.6486 101.192 37.7846L100.545 35.1718H102.485C104.028 35.1718 104.575 34.9205 105.271 33.8151C106.416 32.0565 106.416 26.7807 105.222 21.4546C104.376 17.7364 104.276 17.5354 103.48 18.2891C102.485 19.1935 100.645 19.3442 100.197 18.5905C99.9979 18.2891 100.495 18.0881 101.391 18.0881C102.635 18.0881 102.983 17.8369 103.232 16.7817C103.58 15.3748 102.784 11.9581 101.64 10.1492C101.092 9.29501 101.043 9.04378 101.54 9.04378C101.938 9.04378 102.635 10.2497 103.132 11.6566L104.028 14.3196L106.565 11.5561C107.958 10.0487 109.948 7.68713 110.993 6.38073C114.326 2.10981 113.58 2.00932 106.465 5.77778ZM97.7591 20.3492C97.5104 21.4043 97.1621 21.6053 95.7193 21.6053C94.7741 21.6053 93.9781 21.3541 93.9781 21.1029C93.9781 20.8014 94.6248 20.6004 95.4208 20.6004C96.4656 20.6004 96.9134 20.2989 97.1124 19.495C97.3114 18.892 97.5601 18.5403 97.7591 18.691C97.9084 18.892 97.9581 19.6457 97.7591 20.3492ZM101.341 22.2585C102.087 23.163 102.983 25.625 102.535 25.625C102.336 25.625 101.689 24.7206 101.092 23.6152C100.097 21.7058 100.247 20.9019 101.341 22.2585ZM104.475 29.5945C105.57 28.489 106.217 28.5895 105.769 29.8959C105.172 31.4033 103.232 31.8555 101.242 30.9009C100.247 30.3984 99.4506 29.6949 99.4506 29.3432C99.4506 28.7905 99.8984 28.8408 101.441 29.6447L103.431 30.6496L104.475 29.5945Z" fill="#036897"/>
<path d="M319.161 59.024H231.571C231.196 59.0244 230.824 58.9508 230.477 58.8075C230.13 58.6641 229.815 58.4538 229.549 58.1885C229.284 57.9232 229.073 57.6081 228.929 57.2613C228.785 56.9145 228.711 56.5428 228.711 56.1674C228.711 55.792 228.785 55.4202 228.929 55.0734C229.073 54.7266 229.284 54.4116 229.549 54.1463C229.815 53.881 230.13 53.6706 230.477 53.5273C230.824 53.3839 231.196 53.3103 231.571 53.3108H319.161C319.537 53.3103 319.908 53.3839 320.255 53.5273C320.602 53.6706 320.918 53.881 321.183 54.1463C321.449 54.4116 321.66 54.7266 321.803 55.0734C321.947 55.4202 322.021 55.792 322.021 56.1674C322.021 56.5428 321.947 56.9145 321.803 57.2613C321.66 57.6081 321.449 57.9232 321.183 58.1885C320.918 58.4538 320.602 58.6641 320.255 58.8075C319.908 58.9508 319.537 59.0244 319.161 59.024Z" fill="#5691AE"/>
<path d="M319.161 70.3111H231.572C230.814 70.3111 230.087 70.0102 229.552 69.4744C229.016 68.9387 228.715 68.212 228.715 67.4544C228.715 66.6967 229.016 65.9701 229.552 65.4344C230.087 64.8986 230.814 64.5977 231.572 64.5977H319.161C319.919 64.5977 320.646 64.8986 321.181 65.4344C321.717 65.9701 322.018 66.6967 322.018 67.4544C322.018 68.212 321.717 68.9387 321.181 69.4744C320.646 70.0102 319.919 70.3111 319.161 70.3111V70.3111Z" fill="#5691AE"/>
<path d="M269.54 81.599H231.572C230.814 81.599 230.087 81.298 229.552 80.7622C229.016 80.2265 228.715 79.4999 228.715 78.7422C228.715 77.9846 229.016 77.2579 229.552 76.7222C230.087 76.1865 230.814 75.8855 231.572 75.8855H269.54C270.297 75.8855 271.024 76.1865 271.56 76.7222C272.095 77.2579 272.396 77.9846 272.396 78.7422C272.396 79.4999 272.095 80.2265 271.56 80.7622C271.024 81.298 270.297 81.599 269.54 81.599V81.599Z" fill="#5691AE"/>
<path d="M254.723 119.705C260.021 119.705 264.316 115.41 264.316 110.112C264.316 104.814 260.021 100.519 254.723 100.519C249.425 100.519 245.13 104.814 245.13 110.112C245.13 115.41 249.425 119.705 254.723 119.705Z" fill="#5691AE"/>
<path d="M253.158 115.536C253.136 115.536 253.113 115.535 253.091 115.534C252.897 115.525 252.706 115.473 252.533 115.383C252.36 115.293 252.209 115.167 252.089 115.013L250.489 112.956C250.269 112.673 250.171 112.314 250.215 111.958C250.26 111.602 250.444 111.278 250.727 111.058L250.784 111.013C251.067 110.793 251.426 110.694 251.783 110.739C252.139 110.783 252.463 110.967 252.683 111.25C252.755 111.342 252.846 111.418 252.95 111.472C253.054 111.526 253.168 111.557 253.285 111.563C253.402 111.569 253.519 111.55 253.628 111.507C253.737 111.463 253.834 111.396 253.914 111.31L257.163 107.881C257.41 107.621 257.75 107.469 258.108 107.46C258.467 107.45 258.815 107.583 259.075 107.829L259.128 107.879C259.389 108.126 259.54 108.466 259.55 108.825C259.56 109.184 259.427 109.532 259.18 109.792L254.139 115.113C254.013 115.247 253.861 115.353 253.692 115.426C253.523 115.498 253.341 115.536 253.158 115.536Z" fill="white"/>
<path d="M309.896 125.095H249.859C249.602 125.096 249.347 125.045 249.109 124.947C248.871 124.849 248.655 124.705 248.473 124.523C248.291 124.341 248.147 124.125 248.048 123.887C247.949 123.649 247.899 123.395 247.899 123.137C247.899 122.88 247.949 122.625 248.048 122.387C248.147 122.15 248.291 121.934 248.473 121.752C248.655 121.57 248.871 121.426 249.109 121.327C249.347 121.229 249.602 121.179 249.859 121.179H309.896C310.153 121.179 310.408 121.229 310.646 121.327C310.884 121.426 311.1 121.57 311.282 121.752C311.464 121.934 311.609 122.15 311.707 122.387C311.806 122.625 311.856 122.88 311.856 123.137C311.856 123.395 311.806 123.649 311.707 123.887C311.609 124.125 311.464 124.341 311.282 124.523C311.1 124.705 310.884 124.849 310.646 124.947C310.408 125.045 310.153 125.096 309.896 125.095V125.095Z" fill="#5691AE"/>
<path d="M264.77 132.832H249.859C249.34 132.831 248.843 132.625 248.476 132.257C248.11 131.89 247.904 131.393 247.904 130.874C247.904 130.355 248.11 129.857 248.476 129.49C248.843 129.123 249.34 128.917 249.859 128.916H264.77C265.289 128.917 265.786 129.123 266.153 129.49C266.52 129.857 266.726 130.355 266.726 130.874C266.726 131.393 266.52 131.89 266.153 132.257C265.786 132.625 265.289 132.831 264.77 132.832V132.832Z" fill="#5691AE"/>
<path d="M233.124 186.229C238.422 186.229 242.717 181.934 242.717 176.636C242.717 171.338 238.422 167.043 233.124 167.043C227.826 167.043 223.531 171.338 223.531 176.636C223.531 181.934 227.826 186.229 233.124 186.229Z" fill="#5691AE"/>
<path d="M231.558 182.059C231.536 182.059 231.514 182.059 231.492 182.058C231.297 182.048 231.107 181.997 230.934 181.907C230.761 181.817 230.61 181.691 230.49 181.537L228.89 179.48C228.67 179.197 228.571 178.838 228.616 178.482C228.66 178.126 228.844 177.802 229.127 177.581L229.184 177.537C229.468 177.317 229.827 177.218 230.183 177.263C230.539 177.307 230.863 177.491 231.084 177.774C231.156 177.866 231.247 177.942 231.35 177.996C231.454 178.05 231.569 178.081 231.685 178.086C231.802 178.093 231.92 178.074 232.028 178.03C232.137 177.987 232.235 177.92 232.315 177.834L235.563 174.405C235.81 174.145 236.15 173.993 236.509 173.983C236.868 173.974 237.215 174.107 237.476 174.353L237.529 174.403C237.789 174.65 237.941 174.99 237.951 175.349C237.96 175.707 237.827 176.055 237.581 176.316L232.54 181.637C232.414 181.77 232.262 181.877 232.093 181.949C231.924 182.022 231.742 182.059 231.558 182.059Z" fill="white"/>
<path d="M288.91 190.849H228.873C228.616 190.85 228.361 190.799 228.123 190.701C227.885 190.603 227.669 190.459 227.487 190.277C227.305 190.095 227.16 189.879 227.062 189.641C226.963 189.404 226.913 189.149 226.913 188.891C226.913 188.634 226.963 188.379 227.062 188.141C227.16 187.904 227.305 187.688 227.487 187.506C227.669 187.324 227.885 187.18 228.123 187.082C228.361 186.983 228.616 186.933 228.873 186.933H288.91C289.167 186.933 289.422 186.983 289.66 187.082C289.898 187.18 290.114 187.324 290.296 187.506C290.478 187.688 290.623 187.904 290.721 188.141C290.82 188.379 290.87 188.634 290.87 188.891C290.87 189.149 290.82 189.404 290.721 189.641C290.623 189.879 290.478 190.095 290.296 190.277C290.114 190.459 289.898 190.603 289.66 190.701C289.422 190.799 289.167 190.85 288.91 190.849V190.849Z" fill="#5691AE"/>
<path d="M264.949 198.587H228.873C228.354 198.587 227.856 198.381 227.489 198.013C227.122 197.646 226.915 197.148 226.915 196.629C226.915 196.11 227.122 195.611 227.489 195.244C227.856 194.877 228.354 194.671 228.873 194.671H264.949C265.469 194.671 265.967 194.877 266.334 195.244C266.701 195.611 266.907 196.11 266.907 196.629C266.907 197.148 266.701 197.646 266.334 198.013C265.967 198.381 265.469 198.587 264.949 198.587Z" fill="#5691AE"/>
<path d="M254.898 206.324H228.873C228.354 206.324 227.856 206.117 227.489 205.75C227.122 205.383 226.915 204.885 226.915 204.366C226.915 203.846 227.122 203.348 227.489 202.981C227.856 202.614 228.354 202.407 228.873 202.407H254.898C255.417 202.407 255.915 202.614 256.282 202.981C256.649 203.348 256.856 203.846 256.856 204.366C256.856 204.885 256.649 205.383 256.282 205.75C255.915 206.117 255.417 206.324 254.898 206.324V206.324Z" fill="#5691AE"/>
<path d="M55.6635 228.219C45.3948 223.354 37.7462 213.564 38.9394 202.805C48.1517 210.264 60.694 214.43 73.6419 214.33C78.6849 214.292 84.3329 213.779 87.9976 216.608C90.2778 218.369 91.3065 221.165 91.4364 223.951C91.5663 226.738 90.8908 229.558 90.2191 232.342L90.4234 233.001C78.3667 233.769 65.9322 233.085 55.6635 228.219Z" fill="#5691AF"/>
<path d="M39.1924 202.778C43.1639 210.527 50.0496 216.986 58.607 220.767C60.4819 221.642 62.4783 222.228 64.5286 222.507C66.6165 222.725 68.7265 222.449 70.6881 221.702C72.5479 221.034 74.3812 220.165 76.3536 219.901C77.3193 219.766 78.3023 219.827 79.2437 220.081C80.1851 220.335 81.0657 220.776 81.8328 221.378C83.6553 222.795 84.7425 224.757 85.7276 226.713C86.8214 228.886 87.9174 231.161 90.0592 232.641C90.3188 232.821 89.9573 233.194 89.6982 233.015C85.9718 230.439 85.4341 225.781 82.473 222.661C81.0913 221.205 79.1736 220.15 76.8717 220.32C74.8588 220.468 72.9676 221.363 71.0898 222.053C69.1804 222.807 67.1317 223.143 65.0815 223.039C63.0146 222.857 60.9906 222.342 59.0877 221.515C54.9502 219.792 51.1201 217.409 47.7471 214.458C44.0207 211.235 40.9445 207.33 38.6839 202.953C38.5467 202.685 39.0561 202.512 39.1924 202.778L39.1924 202.778Z" fill="white"/>
<path d="M69.7846 222.147C69.5857 220.634 69.0685 219.179 68.267 217.88C67.4655 216.58 66.398 215.465 65.1345 214.608C64.8758 214.428 65.2372 214.055 65.4955 214.235C66.8083 215.129 67.9167 216.292 68.7475 217.646C69.5783 219 70.1128 220.514 70.3157 222.09C70.3524 222.39 69.8212 222.446 69.7846 222.147L69.7846 222.147Z" fill="white"/>
<path d="M72.8186 180.057C72.8503 180.243 72.882 180.429 72.9176 180.616C73.357 183.108 74.0283 185.553 74.9228 187.92C74.9886 188.104 75.0585 188.29 75.1302 188.471C77.3923 194.202 80.8321 199.394 85.2271 203.712C87.0176 205.476 88.9488 207.091 91.0016 208.541C93.863 210.566 97.1655 212.544 98.9764 215.273C99.1684 215.554 99.3403 215.848 99.4909 216.154L91.3326 232.66C91.2936 232.691 91.2587 232.723 91.2196 232.754L90.9266 233.424C90.8132 233.356 90.6974 233.282 90.584 233.214C90.518 233.174 90.4538 233.131 90.3878 233.092C90.3444 233.064 90.301 233.037 90.2599 233.014C90.2454 233.005 90.231 232.996 90.2205 232.988C90.1794 232.966 90.1442 232.941 90.1071 232.92C89.4586 232.511 88.8125 232.098 88.169 231.68C88.1649 231.678 88.1649 231.678 88.1626 231.673C83.2691 228.473 78.6667 224.858 74.8854 220.686C74.7716 220.56 74.6537 220.433 74.5438 220.3C72.863 218.426 71.3577 216.401 70.0467 214.251C69.3404 213.082 68.7023 211.873 68.1356 210.63C66.6813 207.42 65.8196 203.973 65.5921 200.455C65.1313 193.41 67.2212 186.125 72.4172 180.485C72.5503 180.341 72.6815 180.2 72.8186 180.057Z" fill="#5691AF"/>
<path d="M73.0272 180.169C70.7548 188.884 71.5378 198.074 75.3854 205.895C76.1856 207.631 77.288 209.212 78.6411 210.563C80.0905 211.891 81.8723 212.803 83.7977 213.201C85.6419 213.637 87.6028 213.889 89.2584 214.728C90.0708 215.135 90.7754 215.728 91.3146 216.459C91.8537 217.19 92.2122 218.039 92.3606 218.935C92.7657 221.12 92.252 223.369 91.665 225.56C91.0134 227.992 90.294 230.513 90.8954 232.923C90.9682 233.215 90.4451 233.337 90.3723 233.045C89.3261 228.852 92.0765 224.611 91.9715 220.368C91.9224 218.389 91.2011 216.459 89.3628 215.362C87.7553 214.403 85.7336 214.142 83.8608 213.715C81.9686 213.348 80.1951 212.523 78.6951 211.312C77.2662 210.037 76.0934 208.502 75.2392 206.788C73.2815 203.012 72.0233 198.913 71.5253 194.689C70.9279 189.787 71.2682 184.817 72.5282 180.043C72.6067 179.742 73.1052 179.87 73.0272 180.169V180.169Z" fill="white"/>
<path d="M73.9788 203.423C70.6227 204.474 67.0623 203.216 65.655 200.498C65.5164 200.23 65.9956 199.99 66.1344 200.259C67.4527 202.805 70.7475 203.947 73.8848 202.965C74.215 202.861 74.3071 203.32 73.9788 203.423L73.9788 203.423Z" fill="white"/>
<path d="M82.8199 213.093C83.6792 211.796 84.266 210.339 84.5448 208.808C84.8236 207.278 84.7885 205.707 84.4418 204.191C84.3701 203.899 84.8932 203.777 84.9648 204.069C85.3222 205.648 85.3551 207.283 85.0614 208.875C84.7677 210.467 84.1535 211.983 83.2562 213.33C83.0805 213.605 82.6451 213.366 82.8199 213.093Z" fill="white"/>
<path d="M71.5968 189.996C72.2557 189.922 72.8902 189.703 73.4549 189.355C74.0196 189.007 74.5007 188.539 74.8639 187.985C75.0358 187.709 75.4711 187.948 75.3002 188.222C74.8964 188.834 74.3644 189.35 73.7411 189.736C73.1179 190.121 72.4183 190.366 71.6908 190.454C71.5463 190.472 71.4116 190.421 71.3823 190.286C71.3742 190.22 71.392 190.153 71.4318 190.099C71.4717 190.045 71.5307 190.008 71.5968 189.996V189.996Z" fill="white"/>
<path d="M97.2866 69.5624L111.172 84.3066L143.491 96.1534L147.375 88.9386L122.504 75.7137C122.504 75.7137 111.291 63.9988 104.639 61.5857L97.2866 69.5624Z" fill="#025881"/>
<path d="M146.846 97.9994C149.492 97.9994 151.638 95.8539 151.638 93.2073C151.638 90.5608 149.492 88.4153 146.846 88.4153C144.199 88.4153 142.053 90.5608 142.053 93.2073C142.053 95.8539 144.199 97.9994 146.846 97.9994Z" fill="#036897"/>
<path d="M108.062 62.4052L98.1371 71.1682L98.0904 71.1802C93.4761 72.3582 86.8117 66.9157 82.0336 62.1426C80.4594 60.5674 79.542 58.4533 79.4669 56.2276C79.3918 54.0019 80.1646 51.8307 81.629 50.153C82.7176 48.9226 84.1286 48.0213 85.7027 47.5509C87.2767 47.0805 88.9509 47.0597 90.5361 47.491L98.6029 49.7164L108.062 62.4052Z" fill="#3F3D56"/>
<path d="M119.162 236.463L126.001 236.462L129.255 210.08L119.16 210.08L119.162 236.463Z" fill="#003E5A"/>
<path d="M88.8113 236.463L95.6511 236.462L98.9049 210.08L88.8101 210.08L88.8113 236.463Z" fill="#003E5A"/>
<path d="M78.3821 122.825C78.3821 122.825 77.5835 132.409 79.5801 141.593C81.5768 150.778 81.5768 176.646 81.5768 176.646L85.9695 227.052L99.1476 225.854L102.742 141.593L115.52 169.946L114.322 173.94L115.918 174.938C115.918 174.938 114.722 182.725 115.52 182.725C116.319 182.725 118.316 183.923 118.316 183.923L116.718 225.055L130.296 224.656L135.088 166.752L129.897 133.607L129.497 127.217L127.7 127.291L126.785 124.622L125.105 120.029L78.3821 122.825Z" fill="#44BCE4"/>
<path d="M77.692 124.838L77.6209 124.738C73.8198 119.417 79.5366 106.629 80.3989 104.775L76.5893 122.324L77.585 96.6452L76.5893 93.1066L75.1968 90.7704L75.189 90.7012L73.5916 76.7244L71.2691 67.4412C70.394 63.9318 70.4686 60.2527 71.4852 56.7817C72.5018 53.3106 74.4238 50.1726 77.0538 47.6898L82.4223 42.6281L86.7808 39.1346L100.558 40.3326L101.357 38.1362L103.553 39.5339C107.05 40.3423 109.676 42.6065 111.844 45.4675C114.012 48.3285 115.108 51.8595 114.94 55.4453L114.123 73.3166L117.323 95.5679L117.325 99.5948L122.882 108.705L124.093 114.354C124.594 115.015 127.9 119.424 127.9 120.629C127.9 120.81 127.766 120.985 127.48 121.179C125.227 122.705 112.772 125.815 107.26 123.609C101.389 121.262 78.0485 124.784 77.8133 124.82L77.692 124.838Z" fill="#44BCE4"/>
<path d="M165.256 135.725C178.884 135.725 189.931 124.678 189.931 111.051C189.931 97.4232 178.884 86.376 165.256 86.376C151.629 86.376 140.582 97.4232 140.582 111.051C140.582 124.678 151.629 135.725 165.256 135.725Z" fill="#5691AE"/>
<path d="M163.102 120.722C163.049 120.722 162.995 120.721 162.941 120.718C162.468 120.695 162.005 120.57 161.585 120.352C161.165 120.133 160.796 119.826 160.506 119.452L156.617 114.453C156.082 113.764 155.842 112.891 155.95 112.025C156.059 111.16 156.505 110.373 157.193 109.837L157.333 109.728C158.022 109.194 158.895 108.954 159.76 109.062C160.626 109.17 161.413 109.617 161.949 110.304C162.124 110.529 162.345 110.713 162.597 110.844C162.85 110.975 163.128 111.051 163.412 111.064C163.696 111.081 163.981 111.035 164.245 110.928C164.51 110.822 164.748 110.659 164.942 110.451L172.838 102.115C173.438 101.483 174.265 101.115 175.136 101.091C176.008 101.068 176.854 101.391 177.487 101.99L177.616 102.111C178.248 102.711 178.617 103.538 178.641 104.41C178.664 105.282 178.341 106.127 177.742 106.761L165.489 119.695C165.182 120.019 164.812 120.278 164.402 120.454C163.991 120.631 163.549 120.722 163.102 120.722V120.722Z" fill="white"/>
<path d="M100.11 70.0755L109.79 87.866L138.034 107.542L143.624 101.552L122.934 82.4373C122.934 82.4373 115.069 68.2561 109.249 64.2307L100.11 70.0755Z" fill="#036897"/>
<path d="M142.027 110.337C144.674 110.337 146.819 108.191 146.819 105.544C146.819 102.898 144.674 100.752 142.027 100.752C139.381 100.752 137.235 102.898 137.235 105.544C137.235 108.191 139.381 110.337 142.027 110.337Z" fill="#036897"/>
<path d="M99.4187 74.998L92.6985 57.4454L95.1292 47.7453C95.6127 45.8429 96.5756 44.1256 97.9089 42.7874C99.2422 41.4493 100.893 40.5437 102.674 40.1729C105.092 39.688 107.589 40.2204 109.66 41.6624C111.732 43.1044 113.222 45.3485 113.831 47.9409C115.672 55.8048 117.085 66.0278 113.368 70.0735L113.33 70.1145L99.4187 74.998Z" fill="#E6E6E6"/>
<path d="M238.307 40.2221C243.605 40.2221 247.9 35.9272 247.9 30.6291C247.9 25.3311 243.605 21.0361 238.307 21.0361C233.009 21.0361 228.714 25.3311 228.714 30.6291C228.714 35.9272 233.009 40.2221 238.307 40.2221Z" fill="#5691AE"/>
<path d="M236.742 36.0527C236.72 36.0527 236.698 36.0522 236.675 36.0511C236.481 36.0417 236.29 35.9903 236.118 35.9004C235.945 35.8105 235.793 35.6842 235.674 35.5303L234.074 33.4736C233.854 33.1902 233.755 32.8311 233.8 32.4751C233.844 32.1191 234.028 31.7953 234.311 31.5747L234.368 31.5301C234.652 31.3101 235.011 31.2115 235.367 31.2559C235.723 31.3003 236.047 31.4841 236.267 31.767C236.339 31.8594 236.43 31.9352 236.534 31.9892C236.638 32.0431 236.752 32.074 236.869 32.0797C236.986 32.0865 237.103 32.0674 237.212 32.0238C237.321 31.9801 237.419 31.913 237.498 31.8272L240.747 28.3982C240.994 28.138 241.334 27.9865 241.693 27.9768C242.051 27.9671 242.399 28.1 242.66 28.3464L242.713 28.3963C242.973 28.6433 243.124 28.9834 243.134 29.3421C243.144 29.7008 243.011 30.0487 242.765 30.3094L237.724 35.6302C237.597 35.7637 237.445 35.8701 237.276 35.9427C237.107 36.0154 236.926 36.0528 236.742 36.0527Z" fill="white"/>
<path d="M312.99 193.522C315.845 195.46 319.018 197.641 319.938 201.178C320.15 201.933 320.207 202.724 320.105 203.502C320.003 204.28 319.745 205.029 319.346 205.704C318.613 206.926 317.522 207.885 316.457 208.81C315.192 209.908 313.917 210.987 312.936 212.359C312.486 212.987 313.525 213.586 313.97 212.964C315.79 210.421 318.813 208.981 320.414 206.252C322.308 203.025 321.044 199.198 318.697 196.586C317.233 194.956 315.397 193.711 313.595 192.488C312.955 192.053 312.355 193.091 312.99 193.522L312.99 193.522Z" fill="#E6E7E8"/>
<path d="M322.973 193.522C325.828 195.46 329.002 197.641 329.922 201.178C330.133 201.933 330.19 202.724 330.088 203.502C329.986 204.28 329.728 205.029 329.329 205.704C328.596 206.926 327.505 207.885 326.44 208.81C325.175 209.908 323.901 210.987 322.919 212.359C322.47 212.987 323.508 213.586 323.954 212.964C325.773 210.421 328.796 208.981 330.398 206.252C332.291 203.025 331.028 199.198 328.681 196.586C327.216 194.956 325.38 193.711 323.578 192.488C322.939 192.053 322.338 193.091 322.973 193.522L322.973 193.522Z" fill="#E6E7E8"/>
<path d="M227.943 105.729C228.578 105.298 227.978 104.26 227.339 104.695C225.537 105.918 223.7 107.163 222.236 108.793C219.889 111.405 218.626 115.232 220.519 118.459C222.12 121.188 225.144 122.628 226.963 125.171C227.408 125.793 228.447 125.194 227.998 124.566C227.016 123.195 225.741 122.115 224.477 121.017C223.412 120.092 222.32 119.133 221.588 117.911C221.189 117.236 220.931 116.487 220.829 115.709C220.727 114.931 220.783 114.14 220.995 113.385C221.915 109.848 225.088 107.667 227.943 105.729L227.943 105.729Z" fill="#E6E7E8"/>
<path d="M217.96 105.729C218.595 105.298 217.995 104.26 217.355 104.695C215.553 105.918 213.717 107.163 212.253 108.793C209.906 111.405 208.642 115.232 210.536 118.459C212.137 121.188 215.16 122.628 216.98 125.171C217.425 125.793 218.464 125.194 218.014 124.566C217.033 123.195 215.758 122.115 214.493 121.017C213.428 120.092 212.337 119.133 211.604 117.911C211.205 117.236 210.947 116.487 210.845 115.709C210.744 114.931 210.8 114.14 211.012 113.385C211.932 109.848 215.105 107.667 217.96 105.729L217.96 105.729Z" fill="#E6E7E8"/>
</svg>
