<svg width="17" height="21" viewBox="0 0 17 21" fill="none" xmlns="http://www.w3.org/2000/svg">
<path d="M11.5546 15.8179H5.46018C4.78808 15.8179 4.24133 16.3646 4.24133 17.0367V20.0434H12.7734V17.0367C12.7734 16.3646 12.2267 15.8179 11.5546 15.8179Z" fill="#5691AE"/>
<path d="M6.472 12.3682C6.3748 12.2711 6.24634 12.2131 6.11017 12.2031V14.6798H10.9047V12.2031C10.7685 12.2131 10.6399 12.2711 10.5424 12.3686C9.99891 12.9121 9.27628 13.2114 8.50742 13.2114C7.73856 13.2114 7.01594 12.9121 6.472 12.3682Z" fill="#5691AE"/>
<path d="M12.0427 12.313V14.7311C13.1088 14.9565 13.9114 15.9045 13.9114 17.0368V20.0435H15.8207C16.1347 20.0435 16.3897 19.7886 16.3897 19.4745V17.6462C16.3897 15.0202 14.5204 12.8221 12.0427 12.313Z" fill="#5691AE"/>
<path d="M4.97224 12.313C2.49453 12.8221 0.625214 15.0202 0.625214 17.6462V19.4745C0.625214 19.7886 0.880067 20.0435 1.19419 20.0435H3.10337V17.0368C3.10337 15.9045 3.90601 14.9565 4.97224 14.7311V12.313Z" fill="#5691AE"/>
<path d="M16.431 3.54848H13.3403C13.2974 1.92779 11.9665 0.622559 10.3357 0.622559H6.67918C5.04827 0.622559 3.71755 1.92779 3.67443 3.54848H0.584631C0.270509 3.54848 0.0156555 3.80378 0.0156555 4.1179C0.0156555 5.14962 0.852079 5.98604 1.88379 5.98604H15.1319C16.1636 5.98604 17 5.14962 17 4.1179C17 3.80378 16.745 3.54848 16.431 3.54848Z" fill="#5691AE"/>
<path d="M12.733 7.28597V7.12402H4.28177V7.28597C4.28177 9.62337 6.17376 11.5115 8.50745 11.5115C10.8448 11.5115 12.733 9.61966 12.733 7.28597Z" fill="#5691AE"/>
</svg>
