<svg width="319" height="285" viewBox="0 0 319 285" fill="none" xmlns="http://www.w3.org/2000/svg">
<ellipse cx="159.5" cy="276" rx="159.5" ry="9" fill="#5691AF" fill-opacity="0.19"/>
<path d="M60.218 269.997C47.5398 263.989 38.0964 251.902 39.5695 238.618C50.9436 247.828 66.429 252.971 82.4152 252.848C88.6416 252.8 95.6148 252.167 100.139 255.661C102.955 257.835 104.225 261.287 104.385 264.727C104.546 268.167 103.712 271.649 102.882 275.086L103.134 275.9C88.2486 276.848 72.8963 276.004 60.218 269.997Z" fill="#5691AF"/>
<path d="M77.6527 262.5C77.4071 260.631 76.7686 258.835 75.779 257.231C74.7894 255.627 73.4714 254.25 71.9115 253.192C71.5921 252.969 72.0382 252.509 72.3572 252.731C73.978 253.835 75.3464 255.271 76.3722 256.942C77.398 258.614 78.0579 260.484 78.3084 262.429C78.3537 262.8 77.6978 262.869 77.6527 262.5L77.6527 262.5Z" fill="white"/>
<path d="M39.8814 238.585C44.7849 248.153 53.2863 256.128 63.8517 260.796C66.1667 261.876 68.6315 262.6 71.1629 262.944C73.7407 263.213 76.3458 262.873 78.7678 261.95C81.064 261.126 83.3274 260.053 85.7627 259.726C86.955 259.56 88.1686 259.635 89.331 259.949C90.4933 260.262 91.5805 260.807 92.5276 261.55C94.7778 263.3 96.12 265.722 97.3364 268.137C98.6868 270.819 100.04 273.628 102.684 275.456C103.005 275.678 102.559 276.138 102.239 275.917C97.6379 272.737 96.974 266.986 93.3181 263.134C91.6122 261.337 89.2445 260.034 86.4024 260.243C83.9172 260.427 81.5822 261.531 79.2637 262.383C76.9063 263.314 74.3768 263.729 71.8456 263.6C69.2936 263.375 66.7947 262.74 64.4453 261.719C59.3369 259.592 54.608 256.65 50.4436 253.006C45.8428 249.027 42.0446 244.206 39.2536 238.801C39.0842 238.471 39.7132 238.257 39.8815 238.585L39.8814 238.585Z" fill="white"/>
<path d="M81.399 210.532C81.4381 210.762 81.4772 210.991 81.5212 211.223C82.0637 214.299 82.8926 217.318 83.9969 220.241C84.0782 220.468 84.1644 220.697 84.253 220.921C87.0459 227.997 91.2928 234.407 96.7192 239.738C98.9298 241.916 101.314 243.91 103.849 245.701C107.382 248.201 111.459 250.643 113.695 254.011C113.932 254.359 114.144 254.722 114.33 255.099L104.257 275.479C104.209 275.517 104.166 275.557 104.118 275.595L103.756 276.423C103.616 276.338 103.473 276.247 103.333 276.163C103.252 276.114 103.172 276.061 103.091 276.012C103.037 275.978 102.984 275.944 102.933 275.916C102.915 275.905 102.897 275.894 102.884 275.884C102.834 275.856 102.79 275.825 102.744 275.799C101.944 275.295 101.146 274.785 100.351 274.268C100.346 274.267 100.346 274.267 100.344 274.26C94.3017 270.31 88.6193 265.845 83.9507 260.695C83.8103 260.54 83.6647 260.383 83.5289 260.219C81.4537 257.904 79.5952 255.404 77.9767 252.75C77.1046 251.307 76.3167 249.814 75.617 248.28C73.8215 244.316 72.7575 240.06 72.4767 235.717C71.9078 227.018 74.4882 218.024 80.9034 211.061C81.0676 210.883 81.2297 210.709 81.399 210.532Z" fill="#5691AF"/>
<path d="M81.6568 210.671C78.8511 221.43 79.8179 232.778 84.5683 242.433C85.5563 244.577 86.9173 246.529 88.588 248.197C90.3775 249.837 92.5775 250.962 94.9546 251.454C97.2315 251.993 99.6526 252.303 101.697 253.339C102.7 253.841 103.57 254.574 104.235 255.476C104.901 256.379 105.344 257.427 105.527 258.533C106.027 261.231 105.393 264.008 104.668 266.713C103.863 269.716 102.975 272.828 103.718 275.804C103.808 276.165 103.162 276.315 103.072 275.955C101.78 270.777 105.176 265.541 105.046 260.303C104.986 257.859 104.095 255.477 101.826 254.123C99.8409 252.938 97.3448 252.616 95.0325 252.089C92.6963 251.635 90.5066 250.616 88.6547 249.122C86.8905 247.548 85.4424 245.652 84.3879 243.536C81.9707 238.874 80.4172 233.813 79.8025 228.597C79.0648 222.546 79.485 216.41 81.0406 210.516C81.1375 210.144 81.7531 210.302 81.6568 210.671V210.671Z" fill="white"/>
<path d="M82.8311 239.382C78.6874 240.68 74.2915 239.127 72.5541 235.771C72.3829 235.44 72.9745 235.144 73.1459 235.475C74.7736 238.619 78.8416 240.029 82.715 238.816C83.1227 238.688 83.2364 239.255 82.8311 239.382L82.8311 239.382Z" fill="white"/>
<path d="M93.7472 251.319C94.8081 249.719 95.5326 247.919 95.8769 246.03C96.2211 244.141 96.1778 242.201 95.7496 240.329C95.6611 239.968 96.307 239.818 96.3954 240.178C96.8367 242.128 96.8773 244.147 96.5147 246.112C96.1521 248.078 95.3938 249.949 94.2859 251.613C94.0689 251.952 93.5314 251.656 93.7472 251.319Z" fill="white"/>
<path d="M79.8904 222.803C80.704 222.711 81.4873 222.44 82.1845 222.011C82.8817 221.582 83.4757 221.004 83.9241 220.319C84.1364 219.978 84.6737 220.274 84.4628 220.613C83.9642 221.367 83.3074 222.005 82.5379 222.481C81.7684 222.957 80.9046 223.26 80.0064 223.368C79.8281 223.39 79.6617 223.327 79.6255 223.161C79.6156 223.079 79.6375 222.996 79.6867 222.929C79.736 222.862 79.8088 222.817 79.8904 222.803V222.803Z" fill="white"/>
<path d="M172.494 129.162C160.623 129.162 149.019 125.642 139.149 119.047C129.279 112.452 121.586 103.078 117.043 92.111C112.5 81.1439 111.312 69.076 113.628 57.4334C115.943 45.7908 121.66 35.0964 130.054 26.7026C138.447 18.3087 149.142 12.5924 160.784 10.2766C172.427 7.96071 184.495 9.1493 195.462 13.692C206.429 18.2347 215.803 25.9275 222.398 35.7977C228.993 45.6678 232.513 57.2719 232.513 69.1426C232.495 85.0551 226.166 100.311 214.914 111.563C203.662 122.815 188.406 129.144 172.494 129.162V129.162ZM172.494 10.0685C160.81 10.0685 149.389 13.5331 139.674 20.0243C129.959 26.5154 122.387 35.7415 117.916 46.5359C113.445 57.3303 112.275 69.2081 114.555 80.6674C116.834 92.1266 122.46 102.653 130.722 110.914C138.984 119.176 149.51 124.802 160.969 127.082C172.428 129.361 184.306 128.191 195.1 123.72C205.895 119.249 215.121 111.677 221.612 101.962C228.103 92.2477 231.568 80.8263 231.568 69.1426C231.55 53.4806 225.32 38.4652 214.246 27.3905C203.171 16.3157 188.156 10.0862 172.494 10.0685Z" fill="#F2F2F2"/>
<path d="M134.358 63.1005C131.321 64.8094 128.493 66.4611 128.078 66.8957C127.61 67.3312 124.206 69.2601 120.431 71.1955C112.466 75.3941 108.176 78.0863 101.232 83.2284C98.465 85.3065 96.0089 87.0052 95.7974 87.0089C95.6388 87.0117 96.5662 85.6067 97.9111 83.874L100.396 80.786L97.6411 83.5582C94.7316 86.5468 94.6435 87.5632 97.2871 87.5171C99.5606 87.4774 107.085 85.2629 107.916 84.3937C108.434 83.7971 108.922 84.483 110.57 87.9796C113.813 95.0271 114.461 98.8082 112.693 100.548C112.069 101.147 111.658 101.848 111.769 102.114C112.209 103.121 131.586 125.445 132.009 125.438C132.273 125.433 133.433 104.032 133.422 103.391C133.417 103.124 134.327 100.675 133.745 100.685C132.529 100.706 133.683 100.182 129.348 97.213L128.612 94.4483L130.674 94.4123C132.313 94.3837 132.89 94.1066 133.609 92.9189C134.793 91.0287 134.695 85.4219 133.327 79.7838C132.359 75.848 132.25 75.6363 131.418 76.452C130.377 77.4317 128.424 77.626 127.934 76.8333C127.717 76.5166 128.242 76.2938 129.194 76.2772C130.515 76.2541 130.881 75.9807 131.126 74.8547C131.47 73.3531 130.56 69.7368 129.311 67.8357C128.713 66.938 128.656 66.672 129.185 66.6627C129.607 66.6554 130.37 67.924 130.925 69.4099L131.926 72.2234L134.571 69.2394C136.024 67.6117 138.095 65.065 139.181 63.6573C142.644 59.0566 141.849 58.9636 134.358 63.1005ZM125.376 78.7475C125.131 79.8735 124.765 80.0935 123.232 80.1203C122.227 80.1378 121.376 79.8856 121.372 79.6186C121.366 79.2982 122.05 79.0726 122.896 79.0579C124.006 79.0385 124.476 78.7098 124.673 77.8517C124.873 77.2073 125.131 76.8289 125.345 76.9854C125.508 77.1962 125.574 77.9962 125.376 78.7475ZM129.218 80.7102C130.028 81.6575 131.025 84.2574 130.55 84.2657C130.338 84.2694 129.634 83.3202 128.979 82.1566C127.886 80.1459 128.03 79.2887 129.218 80.7102ZM132.685 88.4482C133.828 87.2531 134.517 87.3479 134.065 88.7446C133.459 90.3576 131.405 90.8742 129.273 89.8965C128.206 89.381 127.347 88.6482 127.34 88.2744C127.33 87.687 127.807 87.7321 129.461 88.5579L131.594 89.5889L132.685 88.4482Z" fill="#036897"/>
<path d="M115.123 58.2014C114.391 58.6949 112.932 59.9489 111.787 60.9837C110.694 62.0177 108.76 63.3334 107.449 63.9439C104.196 65.4428 103.846 66.624 105.046 71.7309C105.562 74.0187 106.127 76.092 106.289 76.3029C106.453 76.5671 107.337 75.7504 108.321 74.5581C110.756 71.6312 116.765 67.4668 122.013 65.1318C124.375 64.0757 126.314 63.0804 126.312 62.9202C126.301 62.3328 117.539 57.2511 116.587 57.2678C116.482 57.2696 115.802 57.7088 115.123 58.2014Z" fill="#068EB0"/>
<path d="M131.956 64.3138L97.1919 86.7401L95.9858 86.1619L97.1484 84.6304L105.603 74.8075L107.617 71.1478L125.348 62.3396L141.114 59.6021L131.956 64.3138Z" fill="#3BB0D7" stroke="#3AB0D7"/>
<path d="M304.885 156.946H225.147C221.809 156.942 218.61 155.614 216.25 153.254C213.889 150.894 212.562 147.694 212.558 144.357V92.9743C212.562 89.6367 213.889 86.4369 216.25 84.0768C218.61 81.7168 221.809 80.3893 225.147 80.3855H304.885C308.223 80.3893 311.422 81.7168 313.782 84.0768C316.142 86.4369 317.47 89.6367 317.474 92.9743V144.357C317.47 147.694 316.142 150.894 313.782 153.254C311.422 155.614 308.223 156.942 304.885 156.946V156.946ZM225.147 81.3307C222.06 81.3341 219.1 82.562 216.918 84.7448C214.735 86.9277 213.507 89.8873 213.503 92.9743V144.357C213.507 147.444 214.735 150.403 216.918 152.586C219.1 154.769 222.06 155.997 225.147 156H304.885C307.972 155.997 310.932 154.769 313.114 152.586C315.297 150.403 316.525 147.444 316.529 144.357V92.9743C316.525 89.8873 315.297 86.9277 313.114 84.7448C310.932 82.562 307.972 81.3341 304.885 81.3307H225.147Z" fill="#5691AE"/>
<path d="M175.707 77.8518C174.515 78.0589 173.45 78.7229 172.74 79.7027C172.031 80.6825 171.731 81.9006 171.905 83.0979C171.945 83.3407 172.004 83.5798 172.083 83.8128L148.308 104.766L157.115 110.934L178.126 86.4582C179.067 86.0568 179.848 85.3552 180.349 84.463C180.849 83.5707 181.04 82.5379 180.891 81.5257C180.801 80.9506 180.599 80.3988 180.296 79.9019C179.993 79.405 179.594 78.9727 179.124 78.6296C178.654 78.2865 178.121 78.0395 177.555 77.9025C176.989 77.7656 176.402 77.7414 175.827 77.8313C175.787 77.8376 175.747 77.8445 175.707 77.8518Z" fill="#036897"/>
<path d="M166.688 101.562C166.688 101.562 161.324 107.739 154.793 114.733C154.339 115.215 153.886 115.702 153.418 116.194C149.448 120.4 145.171 124.767 141.461 128.155C137.506 131.78 134.193 134.303 132.586 134.365C132.452 134.374 132.318 134.359 132.189 134.322C127.383 132.876 131.343 134.596 129.287 137.531C127.222 140.471 127.477 136.614 122.851 134.322C118.233 132.03 120.691 134.308 118.848 137.928C118.276 139.062 113.257 138.831 106.641 137.98C105.894 131.671 104.807 126.227 104.807 126.227C104.793 122.443 105.18 118.668 105.96 114.965C117.487 114.757 127.019 114.639 127.506 114.79C128.763 115.173 131.466 114.204 134.453 112.517C134.878 112.276 135.681 111.718 136.745 110.934C137.685 110.244 138.819 109.384 140.081 108.42C141.499 107.323 143.914 106.723 144.699 104.814C146.976 99.3033 146.197 103.415 146.806 103.16C147.501 102.867 148.73 102.753 149.448 102.333C149.645 102.247 149.806 102.097 149.907 101.907C150.007 101.717 150.04 101.499 150.001 101.288C149.966 101.109 149.906 100.935 149.821 100.773C149.169 99.4639 150.162 99.3363 151.097 99.1993C151.485 99.1802 151.863 99.0683 152.199 98.8732C155.956 95.877 158.801 93.5754 158.801 93.5754L159.822 94.6151L159.826 94.6199L165.866 100.735L166.688 101.562Z" fill="#E6E6E6"/>
<path d="M161.536 277.822H101.811C99.254 277.822 97.174 275.196 97.174 271.969V208.505C97.174 205.278 99.254 202.653 101.811 202.653H161.536C164.092 202.653 166.172 205.278 166.172 208.505V271.969C166.172 275.196 164.092 277.822 161.536 277.822Z" fill="#F2F2F2"/>
<path d="M203.009 269.021L209.031 269.02L211.896 245.793L203.008 245.794L203.009 269.021Z" fill="#036897"/>
<path d="M202.797 275.303L221.315 275.302V275.068C221.315 273.156 220.555 271.323 219.204 269.971C217.852 268.62 216.019 267.86 214.107 267.86H214.107L210.724 265.294L204.413 267.86L202.797 267.861L202.797 275.303Z" fill="#2F2E41"/>
<path d="M165.607 266.252L171.403 267.883L180.456 246.302L171.901 243.893L165.607 266.252Z" fill="#036897"/>
<path d="M163.7 272.241L181.525 277.259L181.589 277.034C182.107 275.194 181.872 273.223 180.938 271.556C180.003 269.888 178.444 268.661 176.604 268.142L176.604 268.142L174.043 264.755L167.273 265.515L165.717 265.077L163.7 272.241Z" fill="#2F2E41"/>
<path d="M150.176 167.343C150.176 167.343 148.248 167.151 153.191 168.861C158.541 170.719 166.66 170.478 174.434 173.266C176.835 174.126 179.269 175.005 181.684 175.884C182.171 176.059 182.657 176.239 183.144 176.413C186.287 177.562 189.378 178.71 192.298 179.807C192.709 179.963 193.116 180.118 193.517 180.27C193.527 180.274 193.536 180.274 193.541 180.279C203.064 183.899 210.554 186.999 211.793 188.238C213.116 189.561 213.664 198.502 213.815 209.552C214.089 230.029 213.007 257.751 213.007 257.751L201.868 257.709C201.868 257.709 201.797 257.463 201.66 257.005C201.415 256.159 200.956 254.585 200.346 252.529C197.813 243.942 192.714 226.924 189.897 219.131C189.103 216.929 188.489 215.464 188.163 215.133C186.273 213.195 188.163 212.34 190.053 211.111C191.944 209.882 190.053 209.504 188.664 207.898C187.275 206.291 189.184 202.671 189.184 202.671C189.184 202.671 187.927 202.638 185.923 202.586C182.964 202.51 178.361 202.397 173.754 202.283C173.749 202.288 173.749 202.288 173.749 202.283C172.014 202.241 170.28 202.198 168.635 202.16C167.359 202.127 166.135 202.099 165.001 202.07C161.603 201.995 159.032 201.943 158.39 201.943C156.291 201.943 157.922 201.943 156.655 200.284C156.461 200.036 156.251 199.801 156.027 199.58C155.709 199.226 155.361 198.9 154.987 198.606C154.722 198.484 155.082 199.244 154.883 200.232C154.774 200.767 154.521 201.263 154.151 201.664C152.274 203.748 146.518 201.499 146.518 201.499C137.047 206.234 129.278 205.894 123.295 203.677C118.997 202.021 115.142 199.391 112.033 195.993C110.802 194.699 109.698 193.29 108.734 191.787L107.955 191.64C107.955 191.64 106.905 156.487 108.115 154.11C110.001 150.405 137.889 153.165 137.889 153.165L150.176 167.343Z" fill="#44BCE4"/>
<path d="M145.676 16H119.324C119.238 16 119.155 15.9473 119.095 15.8535C119.034 15.7598 119 15.6326 119 15.5C119 15.3674 119.034 15.2402 119.095 15.1464C119.155 15.0527 119.238 15 119.324 15H145.676C145.762 15 145.844 15.0527 145.905 15.1464C145.966 15.2402 146 15.3674 146 15.5C146 15.6326 145.966 15.7598 145.905 15.8535C145.844 15.9473 145.762 16 145.676 16Z" fill="#F2F2F2"/>
<path d="M69.5257 32.8764C72.8681 20.3293 79.2096 9.6137 89.5242 1.32437C89.9296 0.686212 90.5717 0.234964 91.3095 0.0696111C92.0473 -0.095742 92.8205 0.0383068 93.4596 0.44235L117.288 15.5456C117.927 15.9511 118.378 16.5932 118.543 17.3309C118.709 18.0687 118.574 18.842 118.17 19.481L98.172 51.0331C97.7665 51.6713 97.1244 52.1225 96.3867 52.2879C95.6489 52.4532 94.8756 52.3192 94.2366 51.9152L70.4077 36.8119C69.7696 36.4064 69.3183 35.7643 69.153 35.0266C68.9876 34.2888 69.1217 33.5155 69.5257 32.8764V32.8764Z" fill="#E6E6E6"/>
<path d="M77.3939 24.5049C78.2267 17.8833 83.6414 11.0761 90.2507 4.22035C90.6305 3.62269 91.2318 3.20006 91.9228 3.0452C92.6137 2.89034 93.3379 3.0159 93.9364 3.39431L114.415 16.3743C115.013 16.754 115.436 17.3554 115.59 18.0463C115.745 18.7373 115.62 19.4615 115.241 20.06L97.4455 48.1371C97.0657 48.7347 96.4644 49.1573 95.7734 49.3122C95.0825 49.467 94.3583 49.3415 93.7598 48.963L81.0735 40.9222C78.4114 39.2307 76.5289 36.5522 75.839 33.4744C75.1492 30.3966 75.7084 27.1709 77.3939 24.5049Z" fill="white"/>
<path d="M102.154 30.7283L86.1578 20.6516C85.9036 20.4911 85.7236 20.2362 85.6571 19.943C85.5907 19.6498 85.6434 19.3422 85.8037 19.0878C85.9639 18.8335 86.2186 18.6531 86.5117 18.5864C86.8049 18.5197 87.1125 18.5721 87.3671 18.732L103.363 28.8087C103.489 28.8881 103.599 28.9915 103.685 29.1131C103.771 29.2347 103.833 29.3721 103.866 29.5174C103.899 29.6628 103.903 29.8132 103.878 29.9601C103.853 30.1071 103.799 30.2476 103.719 30.3737C103.64 30.4999 103.536 30.6091 103.415 30.6952C103.293 30.7813 103.156 30.8425 103.01 30.8754C102.865 30.9084 102.714 30.9123 102.567 30.8871C102.421 30.8618 102.28 30.8079 102.154 30.7283Z" fill="#3BB0D7"/>
<path d="M92.9927 17.6051L89.4736 15.3882C89.3474 15.3089 89.238 15.2054 89.1518 15.0838C89.0656 14.9622 89.0042 14.8248 88.9711 14.6795C88.938 14.5342 88.9339 14.3837 88.959 14.2368C88.9841 14.0899 89.0379 13.9493 89.1174 13.8232C89.1968 13.6971 89.3004 13.5878 89.4221 13.5017C89.5438 13.4157 89.6812 13.3544 89.8266 13.3215C89.972 13.2885 90.1224 13.2846 90.2693 13.3099C90.4162 13.3351 90.5567 13.3891 90.6828 13.4686L94.2019 15.6855C94.3281 15.7648 94.4375 15.8683 94.5237 15.9899C94.6099 16.1115 94.6713 16.2489 94.7044 16.3942C94.7374 16.5395 94.7416 16.69 94.7165 16.8369C94.6914 16.9839 94.6375 17.1244 94.5581 17.2505C94.4786 17.3766 94.3751 17.4859 94.2534 17.5719C94.1317 17.658 93.9943 17.7193 93.8489 17.7522C93.7035 17.7851 93.5531 17.7891 93.4061 17.7639C93.2592 17.7386 93.1188 17.6846 92.9927 17.6051V17.6051Z" fill="#3BB0D7"/>
<path d="M96.8381 39.1673L80.8419 29.0906C80.7157 29.0113 80.6063 28.9078 80.5201 28.7862C80.4339 28.6646 80.3725 28.5272 80.3394 28.3819C80.3064 28.2366 80.3023 28.0861 80.3274 27.9392C80.3525 27.7923 80.4063 27.6517 80.4857 27.5256C80.5652 27.3995 80.6687 27.2902 80.7904 27.2041C80.9121 27.1181 81.0495 27.0568 81.1949 27.0239C81.3403 26.9909 81.4907 26.987 81.6377 27.0122C81.7846 27.0375 81.925 27.0915 82.0511 27.171L98.0473 37.2477C98.3015 37.4082 98.4816 37.6631 98.548 37.9563C98.6144 38.2495 98.5617 38.5571 98.4015 38.8115C98.2412 39.0659 97.9865 39.2462 97.6934 39.3129C97.4003 39.3796 97.0926 39.3273 96.8381 39.1673V39.1673Z" fill="#3BB0D7"/>
<path d="M99.4961 34.9478L83.4999 24.8711C83.3737 24.7918 83.2643 24.6884 83.1781 24.5668C83.0919 24.4452 83.0305 24.3078 82.9974 24.1624C82.9644 24.0171 82.9602 23.8666 82.9853 23.7197C83.0104 23.5728 83.0643 23.4322 83.1437 23.3061C83.2232 23.18 83.3267 23.0707 83.4484 22.9847C83.5701 22.8986 83.7075 22.8373 83.8529 22.8044C83.9983 22.7715 84.1487 22.7675 84.2956 22.7928C84.4425 22.818 84.583 22.872 84.7091 22.9516L100.705 33.0283C100.96 33.1886 101.14 33.4435 101.207 33.7369C101.273 34.0303 101.221 34.3381 101.06 34.5926C100.981 34.7187 100.878 34.8278 100.756 34.9139C100.634 35 100.497 35.0612 100.352 35.0942C100.058 35.1608 99.7506 35.1082 99.4961 34.9478L99.4961 34.9478Z" fill="#3BB0D7"/>
<path d="M116.622 22.2565C119.232 22.2565 121.348 20.1407 121.348 17.5306C121.348 14.9206 119.232 12.8047 116.622 12.8047C114.012 12.8047 111.896 14.9206 111.896 17.5306C111.896 20.1407 114.012 22.2565 116.622 22.2565Z" fill="#3BB0D7"/>
<path d="M147.5 17C148.328 17 149 16.3284 149 15.5C149 14.6716 148.328 14 147.5 14C146.672 14 146 14.6716 146 15.5C146 16.3284 146.672 17 147.5 17Z" fill="#3BB0D7"/>
<path d="M196.106 201.786C194.136 212.524 185.785 237.689 180.738 252.42C178.436 259.15 178.247 256.616 178.247 256.616L175.624 255.789L171.201 254.391L169.585 253.88L167.628 253.261C167.628 253.261 166.669 236.144 166.361 223.303C166.258 219.163 166.078 216.205 165.78 215.619C164.551 213.209 166.607 212.954 168.776 212.344C170.95 211.734 169.254 210.818 168.408 208.861C167.836 207.557 168.961 205.822 169.759 204.83C169.979 204.551 170.215 204.284 170.464 204.031C170.464 204.031 164.934 202.15 158.682 200.028C158.677 200.033 158.677 200.028 158.677 200.028C158.049 199.816 157.415 199.603 156.782 199.385C158.984 198.592 160.449 197.977 160.78 197.651C162.718 195.761 163.573 197.651 164.802 199.541C166.031 201.432 166.409 199.541 168.016 198.152C169.622 196.763 173.242 198.672 173.242 198.672C173.242 198.672 173.276 197.415 173.328 195.411C173.403 192.453 173.517 187.849 173.63 183.242C173.625 183.237 173.625 183.237 173.63 183.237C173.673 181.503 173.715 179.768 173.753 178.124C177.085 180.676 180.317 183.18 183.247 185.496C183.252 185.501 183.261 185.505 183.261 185.515C190.308 191.082 195.596 195.553 196.338 196.971C196.674 197.613 196.56 199.319 196.106 201.786Z" fill="#3AABD1"/>
<path d="M150.649 161.671L148.909 162.801L144.458 165.693L138.418 169.611L106.225 190.499C106.225 190.499 102.246 182.39 105.889 175.339C106.358 174.447 106.74 173.511 107.028 172.546C108.503 167.489 105.667 165.296 105.667 165.296C105.667 165.296 100.941 160.698 105.473 156.459C106.404 155.589 106.924 153.807 107.161 151.52C107.558 147.758 107.194 142.635 106.641 137.98C105.894 131.671 104.807 126.227 104.807 126.227C104.794 122.443 105.18 118.668 105.96 114.965C106.825 110.976 108.214 107.186 110.27 104.039C111.024 102.871 111.893 101.782 112.865 100.787C114.224 99.3939 115.815 98.2473 117.567 97.3987C120.195 96.1322 124.698 96.8931 128.668 97.446C129.467 97.5547 130.242 97.6587 130.975 97.7343C131.701 97.8187 132.769 98.4931 133.5 98.5L134.807 103.873L135.431 106.146L135.743 107.285L136.452 109.875L136.745 110.934L141.461 128.155L145.313 142.201L147.44 149.96L150.62 161.563L150.649 161.671Z" fill="#44BCE4"/>
<path d="M187.1 236.91L160.504 227.499C159.792 227.246 159.209 226.721 158.883 226.038C158.557 225.356 158.515 224.572 158.767 223.859L171.227 188.643C171.48 187.93 172.006 187.347 172.688 187.022C173.37 186.696 174.154 186.654 174.867 186.906L201.463 196.316C202.176 196.569 202.759 197.094 203.085 197.777C203.41 198.459 203.452 199.243 203.201 199.956C203.053 213.188 198.543 224.794 190.74 235.172C190.487 235.885 189.962 236.468 189.279 236.794C188.597 237.119 187.813 237.161 187.1 236.91V236.91Z" fill="#E6E6E6"/>
<path d="M177.28 231.061L163.12 226.051C162.453 225.814 161.907 225.322 161.602 224.683C161.297 224.044 161.258 223.31 161.493 222.642L172.581 191.304C172.818 190.637 173.31 190.091 173.949 189.786C174.588 189.481 175.322 189.442 175.99 189.677L198.847 197.765C199.515 198.002 200.061 198.493 200.366 199.133C200.671 199.772 200.71 200.506 200.474 201.173C199.165 210.606 197.157 219.069 192.464 223.814C191.408 226.786 189.217 229.218 186.37 230.577C183.524 231.936 180.254 232.11 177.28 231.061V231.061Z" fill="white"/>
<path d="M171.588 206.736C171.69 206.453 171.899 206.222 172.171 206.093C172.443 205.964 172.755 205.949 173.038 206.049L190.843 212.405C190.984 212.455 191.113 212.532 191.223 212.632C191.334 212.732 191.424 212.853 191.488 212.987C191.552 213.122 191.588 213.268 191.596 213.417C191.603 213.566 191.581 213.715 191.531 213.855C191.481 213.995 191.404 214.124 191.304 214.235C191.204 214.345 191.083 214.435 190.948 214.499C190.813 214.563 190.667 214.599 190.519 214.607C190.37 214.614 190.221 214.592 190.081 214.541L172.275 208.186C171.992 208.084 171.761 207.875 171.632 207.603C171.503 207.331 171.488 207.02 171.588 206.736Z" fill="#44BCE4"/>
<path d="M187.568 205.835C187.669 205.552 187.879 205.32 188.15 205.192C188.422 205.063 188.734 205.047 189.017 205.148L192.934 206.546C193.075 206.596 193.204 206.673 193.314 206.773C193.425 206.873 193.514 206.994 193.578 207.129C193.642 207.263 193.679 207.409 193.686 207.558C193.693 207.707 193.672 207.855 193.621 207.996C193.571 208.136 193.494 208.265 193.394 208.375C193.294 208.486 193.174 208.576 193.039 208.639C192.904 208.703 192.758 208.74 192.61 208.747C192.461 208.755 192.312 208.733 192.172 208.683L188.255 207.284C187.972 207.183 187.74 206.973 187.611 206.702C187.483 206.43 187.467 206.118 187.568 205.835V205.835Z" fill="#44BCE4"/>
<path d="M168.235 216.129C168.337 215.846 168.546 215.615 168.818 215.486C169.09 215.357 169.402 215.342 169.685 215.442L187.49 221.798C187.631 221.848 187.76 221.925 187.871 222.025C187.981 222.125 188.071 222.246 188.135 222.38C188.199 222.515 188.235 222.661 188.243 222.81C188.25 222.959 188.228 223.108 188.178 223.248C188.128 223.388 188.051 223.517 187.951 223.628C187.851 223.738 187.73 223.828 187.595 223.892C187.461 223.956 187.315 223.992 187.166 224C187.017 224.007 186.868 223.985 186.728 223.935L168.922 217.579C168.639 217.478 168.408 217.268 168.279 216.996C168.15 216.724 168.135 216.413 168.235 216.129V216.129Z" fill="#44BCE4"/>
<path d="M169.912 211.433C170.013 211.15 170.223 210.918 170.495 210.79C170.766 210.661 171.078 210.645 171.362 210.746L189.167 217.101C189.307 217.151 189.436 217.229 189.547 217.328C189.658 217.428 189.747 217.549 189.811 217.684C189.875 217.818 189.912 217.964 189.919 218.113C189.927 218.262 189.905 218.411 189.855 218.551C189.805 218.692 189.727 218.821 189.627 218.931C189.527 219.042 189.407 219.132 189.272 219.195C189.137 219.259 188.991 219.296 188.842 219.303C188.693 219.31 188.544 219.288 188.404 219.238L170.599 212.882C170.316 212.781 170.084 212.571 169.956 212.3C169.827 212.028 169.811 211.716 169.912 211.433V211.433Z" fill="#44BCE4"/>
<path d="M179.038 187.418C178.698 186.257 177.917 185.275 176.864 184.68C175.81 184.086 174.566 183.926 173.396 184.235C173.159 184.301 172.928 184.387 172.705 184.492L149.197 163.241L144.065 172.688L170.761 190.795C171.266 191.685 172.052 192.382 172.995 192.778C173.938 193.174 174.986 193.247 175.974 192.985C176.536 192.831 177.061 192.567 177.52 192.21C177.98 191.852 178.364 191.408 178.652 190.902C178.94 190.396 179.125 189.838 179.197 189.26C179.269 188.682 179.227 188.096 179.072 187.535C179.061 187.496 179.05 187.457 179.038 187.418Z" fill="#036897"/>
<path d="M161.499 172.399L160.582 173.534L155.185 180.23L154.458 181.138C154.458 181.138 146.75 175.845 138.418 169.611C128.418 162.12 117.52 153.269 118.007 150.57C118.9 145.632 117.638 149.757 114.486 148.047C111.338 146.331 115.195 146.147 116.948 141.293C118.706 136.445 116.721 139.143 112.917 137.725C110.379 136.78 111.707 115.098 112.865 100.787C114.224 99.394 115.815 98.2475 117.567 97.3989C120.719 95.8772 126.584 97.2808 130.975 97.7344C133.46 116.057 137.047 142.858 136.887 143.704C136.641 144.994 137.917 147.569 139.93 150.348C140.875 151.662 145.748 156.657 150.62 161.563C156.055 167.035 161.499 172.399 161.499 172.399Z" fill="#E6E6E6"/>
<path d="M225.147 80.8579C221.935 80.8615 218.855 82.1392 216.583 84.4107C214.312 86.6821 213.034 89.7618 213.031 92.9741V144.357C213.034 147.569 214.312 150.649 216.583 152.92C218.855 155.191 221.935 156.469 225.147 156.473H304.885C308.097 156.469 311.177 155.191 313.448 152.92C315.72 150.649 316.997 147.569 317.001 144.357V92.9741C316.997 89.7618 315.72 86.6821 313.448 84.4107C311.177 82.1392 308.097 80.8615 304.885 80.8579H225.147Z" fill="white"/>
<path d="M218.229 88.4196C220.839 88.4196 222.955 86.3038 222.955 83.6937C222.955 81.0836 220.839 78.9678 218.229 78.9678C215.619 78.9678 213.503 81.0836 213.503 83.6937C213.503 86.3038 215.619 88.4196 218.229 88.4196Z" fill="#44BCE4"/>
<path d="M277.37 104.947H227.333C227.191 104.947 227.051 104.92 226.92 104.866C226.788 104.812 226.669 104.732 226.569 104.632C226.468 104.532 226.389 104.413 226.334 104.282C226.28 104.15 226.252 104.01 226.252 103.868C226.252 103.726 226.28 103.586 226.334 103.455C226.389 103.324 226.468 103.205 226.569 103.104C226.669 103.004 226.788 102.925 226.92 102.871C227.051 102.816 227.191 102.789 227.333 102.789H277.37C277.656 102.79 277.929 102.904 278.131 103.106C278.333 103.308 278.447 103.582 278.447 103.868C278.447 104.154 278.333 104.428 278.131 104.63C277.929 104.833 277.656 104.947 277.37 104.947V104.947Z" fill="#44BCE4"/>
<path d="M302.699 114.812H227.333C227.191 114.812 227.051 114.784 226.92 114.73C226.788 114.676 226.669 114.597 226.569 114.497C226.468 114.396 226.389 114.277 226.334 114.146C226.28 114.015 226.252 113.875 226.252 113.733C226.252 113.591 226.28 113.45 226.334 113.319C226.389 113.188 226.468 113.069 226.569 112.969C226.669 112.869 226.788 112.789 226.92 112.735C227.051 112.681 227.191 112.654 227.333 112.654H302.699C302.985 112.654 303.259 112.768 303.461 112.971C303.663 113.173 303.776 113.447 303.776 113.733C303.776 114.019 303.663 114.293 303.461 114.495C303.259 114.697 302.985 114.811 302.699 114.812Z" fill="#F2F2F2"/>
<path d="M302.7 122.517H227.331C227.045 122.517 226.77 122.631 226.568 122.833C226.365 123.036 226.251 123.311 226.251 123.597C226.251 123.883 226.365 124.158 226.568 124.361C226.77 124.563 227.045 124.677 227.331 124.677H302.7C302.987 124.677 303.261 124.563 303.464 124.361C303.666 124.158 303.78 123.883 303.78 123.597C303.78 123.311 303.666 123.036 303.464 122.833C303.261 122.631 302.987 122.517 302.7 122.517V122.517Z" fill="#F2F2F2"/>
<path d="M302.699 134.542H227.333C227.191 134.542 227.051 134.514 226.92 134.46C226.788 134.406 226.669 134.327 226.569 134.227C226.468 134.126 226.389 134.007 226.334 133.876C226.28 133.745 226.252 133.605 226.252 133.463C226.252 133.321 226.28 133.18 226.334 133.049C226.389 132.918 226.468 132.799 226.569 132.699C226.669 132.599 226.788 132.519 226.92 132.465C227.051 132.411 227.191 132.383 227.333 132.384H302.699C302.985 132.384 303.259 132.498 303.461 132.701C303.663 132.903 303.776 133.177 303.776 133.463C303.776 133.749 303.663 134.023 303.461 134.225C303.259 134.427 302.985 134.541 302.699 134.542Z" fill="#F2F2F2"/>
<path d="M178.658 53.2898L212.616 45.9644L213.058 45.8694C213.283 45.8206 213.516 45.8362 213.733 45.9144C213.949 45.9927 214.139 46.1303 214.28 46.3117C214.422 46.493 214.509 46.7105 214.533 46.9393C214.556 47.1681 214.514 47.3988 214.412 47.605L200.929 74.9856C200.842 75.1616 200.714 75.3139 200.555 75.43C200.397 75.546 200.213 75.6222 200.019 75.6523C199.824 75.6825 199.625 75.665 199.439 75.6011C199.252 75.5372 199.084 75.4289 198.949 75.2855L189.584 65.411C189.518 65.339 189.437 65.2815 189.347 65.2423C189.257 65.203 189.16 65.1828 189.062 65.1828C188.929 65.181 188.797 65.2154 188.682 65.2824C188.567 65.3494 188.472 65.4466 188.407 65.5634L186.489 69.1114C186.367 69.348 186.169 69.5368 185.927 69.6477C185.684 69.7587 185.412 69.7855 185.153 69.7238L185.143 69.7217C184.881 69.6661 184.645 69.524 184.473 69.3181C184.302 69.1122 184.204 68.8546 184.196 68.5866L183.812 60.3965C183.808 60.2943 183.782 60.1941 183.737 60.1022C183.689 60.0112 183.624 59.9305 183.545 59.8645L178.142 55.4295C177.964 55.2838 177.831 55.0909 177.758 54.8731C177.685 54.6552 177.675 54.4212 177.729 54.1979C177.783 53.9746 177.899 53.7709 178.063 53.6103C178.227 53.4497 178.433 53.3386 178.658 53.2898H178.658ZM178.45 55.0525L183.853 59.4875C183.924 59.5442 183.987 59.6086 184.043 59.6796L212.678 46.6934C212.703 46.6816 212.729 46.6724 212.756 46.6658C212.867 46.6373 212.984 46.6483 213.087 46.6969C213.19 46.7455 213.273 46.8287 213.322 46.932C213.37 47.0353 213.381 47.1522 213.352 47.2626C213.323 47.373 213.257 47.4699 213.164 47.5365L189.62 64.8311C189.74 64.8932 189.848 64.9755 189.939 65.0742L199.304 74.9487C199.385 75.0342 199.486 75.0988 199.597 75.1371C199.709 75.1754 199.828 75.1861 199.945 75.1684C200.061 75.1508 200.172 75.1052 200.267 75.0357C200.363 74.9661 200.44 74.8745 200.492 74.7688L213.975 47.3882C214.035 47.2644 214.06 47.1263 214.045 46.9894C214.031 46.8526 213.978 46.7225 213.893 46.6141C213.809 46.5056 213.695 46.4232 213.566 46.3761C213.437 46.329 213.297 46.3192 213.162 46.3477L212.71 46.4454L178.762 53.7682C178.627 53.7973 178.504 53.8639 178.405 53.9602C178.306 54.0565 178.237 54.1786 178.204 54.3127C178.171 54.4467 178.177 54.5872 178.221 54.718C178.264 54.8488 178.344 54.9648 178.45 55.0525V55.0525Z" fill="#44BCE4"/>
<path d="M178.658 53.2898L212.616 45.9644L213.058 45.8694C213.283 45.8206 213.516 45.8362 213.733 45.9144C213.949 45.9927 214.139 46.1303 214.28 46.3117C214.422 46.493 214.509 46.7105 214.533 46.9393C214.556 47.1681 214.514 47.3988 214.412 47.605L200.929 74.9856C200.842 75.1616 200.714 75.3139 200.555 75.43C200.397 75.546 200.213 75.6222 200.019 75.6523C199.824 75.6825 199.625 75.665 199.439 75.6011C199.252 75.5372 199.084 75.4289 198.949 75.2855L189.584 65.411C189.518 65.339 189.437 65.2815 189.347 65.2423C189.257 65.203 189.16 65.1828 189.062 65.1828C188.929 65.181 188.797 65.2154 188.682 65.2824C188.567 65.3494 188.472 65.4466 188.407 65.5634L186.489 69.1114C186.367 69.348 186.169 69.5368 185.927 69.6477C185.684 69.7587 185.412 69.7855 185.153 69.7238L185.143 69.7217C184.881 69.6661 184.645 69.524 184.473 69.3181C184.302 69.1122 184.204 68.8546 184.196 68.5866L183.812 60.3965C183.808 60.2943 183.782 60.1941 183.737 60.1022C183.689 60.0112 183.624 59.9305 183.545 59.8645L178.142 55.4295C177.964 55.2838 177.831 55.0909 177.758 54.8731C177.685 54.6552 177.675 54.4212 177.729 54.1979C177.783 53.9746 177.899 53.7709 178.063 53.6103C178.227 53.4497 178.433 53.3386 178.658 53.2898H178.658ZM178.45 55.0525L183.853 59.4875C183.924 59.5442 183.987 59.6086 184.043 59.6796C184.094 59.7428 184.137 59.8111 184.173 59.8835C184.211 59.9576 184.241 60.0354 184.262 60.1158L184.261 60.1181C184.284 60.2018 184.297 60.2877 184.3 60.3743L184.684 68.5644C184.687 68.7254 184.745 68.8806 184.848 69.0043C184.951 69.128 185.094 69.213 185.251 69.2452L185.256 69.2463C185.412 69.2849 185.576 69.2699 185.722 69.2036C185.867 69.1374 185.987 69.0238 186.06 68.8813L187.979 65.3309C188.077 65.1483 188.221 64.9939 188.397 64.8826C188.572 64.7712 188.773 64.7064 188.98 64.6944L188.982 64.6949C189.01 64.6936 189.038 64.6922 189.065 64.6933C189.259 64.6934 189.449 64.7407 189.62 64.8311C189.74 64.8932 189.848 64.9755 189.939 65.0742L199.304 74.9487C199.385 75.0342 199.486 75.0988 199.597 75.1371C199.709 75.1754 199.828 75.1861 199.945 75.1684C200.061 75.1508 200.172 75.1052 200.267 75.0357C200.363 74.9661 200.44 74.8745 200.492 74.7688L213.975 47.3882C214.035 47.2644 214.06 47.1263 214.045 46.9894C214.031 46.8526 213.978 46.7225 213.893 46.6141C213.809 46.5056 213.695 46.4232 213.566 46.3761C213.437 46.329 213.297 46.3192 213.162 46.3477L212.71 46.4454L178.762 53.7682C178.627 53.7973 178.504 53.8639 178.405 53.9602C178.306 54.0565 178.237 54.1786 178.204 54.3127C178.171 54.4467 178.177 54.5872 178.221 54.718C178.264 54.8488 178.344 54.9648 178.45 55.0525V55.0525Z" fill="#5691AE"/>
<path d="M183.935 59.7281L184.137 60.173L184.261 60.118L184.262 60.1156L212.874 47.1419L188.982 64.6948L188.98 64.6943L188.917 64.7428L189.205 65.1368L189.62 64.831L213.164 47.5363C213.257 47.4697 213.323 47.3729 213.352 47.2625C213.381 47.1521 213.37 47.0351 213.322 46.9318C213.273 46.8286 213.19 46.7454 213.087 46.6968C212.984 46.6482 212.867 46.6372 212.757 46.6656C212.729 46.6722 212.703 46.6815 212.678 46.6932L184.043 59.6795L183.935 59.7281Z" fill="#5691AE"/>
<path d="M220.348 33.1304H248.652C248.745 33.1304 248.833 33.0777 248.898 32.9839C248.963 32.8901 249 32.763 249 32.6304C249 32.4978 248.963 32.3706 248.898 32.2768C248.833 32.183 248.745 32.1304 248.652 32.1304H220.348C220.255 32.1304 220.167 32.183 220.102 32.2768C220.037 32.3706 220 32.4978 220 32.6304C220 32.763 220.037 32.8901 220.102 32.9839C220.167 33.0777 220.255 33.1304 220.348 33.1304Z" fill="#F2F2F2"/>
<path d="M251.277 39.3664C253.887 39.3664 256.003 37.2505 256.003 34.6405C256.003 32.0304 253.887 29.9146 251.277 29.9146C248.667 29.9146 246.551 32.0304 246.551 34.6405C246.551 37.2505 248.667 39.3664 251.277 39.3664Z" fill="#44BCE4"/>
<path d="M220 35C221.105 35 222 34.1046 222 33C222 31.8954 221.105 31 220 31C218.895 31 218 31.8954 218 33C218 34.1046 218.895 35 220 35Z" fill="#44BCE4"/>
<path d="M282.158 20.3968L255.871 31.8948C254.71 32.4042 253.797 33.3561 253.333 34.5418C252.869 35.7274 252.891 37.05 253.394 38.2193L261.557 57.1113C262.063 58.2795 263.009 59.1979 264.188 59.665C265.366 60.1322 266.68 60.1099 267.842 59.6032L294.129 48.1052C295.29 47.5958 296.203 46.6439 296.667 45.4582C297.131 44.2726 297.109 42.95 296.606 41.7807L288.443 22.8886C287.937 21.7205 286.991 20.8021 285.812 20.335C284.634 19.8678 283.32 19.8901 282.158 20.3968V20.3968ZM283.246 22.9158C283.403 22.8477 283.568 22.7999 283.737 22.7734L274.85 39.6445L256.597 34.6185C256.71 34.538 256.832 34.4694 256.959 34.4137L283.246 22.9158ZM293.041 45.5863L266.754 57.0842C266.256 57.3014 265.693 57.3109 265.188 57.1107C264.683 56.9105 264.277 56.5169 264.06 56.0163L255.971 37.2939L275.184 42.5841C275.483 42.6665 275.801 42.6438 276.086 42.52C276.371 42.3961 276.605 42.1783 276.75 41.9026L286.052 24.2439L294.102 42.8757C294.318 43.3769 294.327 43.9437 294.128 44.4518C293.929 44.96 293.538 45.3679 293.041 45.5863V45.5863Z" fill="#E6E6E6"/>
</svg>
