<svg width="129" height="120" viewBox="0 0 129 120" fill="none" xmlns="http://www.w3.org/2000/svg">
<path d="M106.32 37.2599C106.225 36.8355 106.047 36.4344 105.794 36.0805C105.542 35.7266 105.22 35.4271 104.85 35.1999C104.85 35.1999 104.55 35.0699 104.34 34.9599C104.302 34.793 104.252 34.6293 104.19 34.4699V34.4699C104.71 33.9499 104.19 33.6499 103.62 33.3599C103.458 33.1082 103.263 32.8795 103.04 32.6799C102.801 32.5091 102.538 32.3743 102.26 32.2799C101.962 31.8948 101.627 31.5397 101.26 31.2199C101.577 31.2379 101.891 31.2847 102.2 31.3599C101.578 30.9758 100.905 30.6828 100.2 30.4899C96.9598 28.5899 92.3698 28.8399 88.3698 29.2899C87.7498 29.2099 87.2698 28.9999 86.6698 28.9499C86.0298 29.1299 85.4298 29.4199 84.7998 29.6599C83.5098 29.7799 82.2298 29.8899 80.9498 29.9799C80.6743 29.9113 80.4037 29.8245 80.1398 29.7199H79.9298C79.4898 29.7999 79.4198 29.4999 79.1198 29.4299C79.0145 29.5201 78.8966 29.5942 78.7698 29.6499C78.112 29.909 77.416 30.0577 76.7098 30.0899C76.5324 30.1247 76.3584 30.1749 76.1898 30.2399H73.1898C73.2305 30.1924 73.2812 30.1544 73.3382 30.1284C73.3952 30.1025 73.4571 30.0894 73.5198 30.0899C73.7585 30.1478 74.0043 30.1713 74.2498 30.1599C74.9098 30.0899 76.3798 29.5799 76.3798 28.7699C75.5798 28.3999 74.9898 29.2099 74.3798 29.4999C73.6045 29.7893 72.7721 29.8921 71.9498 29.7999C71.0509 29.793 70.1577 29.9419 69.3098 30.2399H60.2998C59.8098 29.9499 59.2998 29.7199 59.0098 29.5799C58.1095 29.2613 57.1493 29.1486 56.1998 29.2499C56.2926 29.2174 56.3764 29.1633 56.4443 29.092C56.5121 29.0207 56.5619 28.9343 56.5898 28.8399C56.1498 28.3999 55.4898 28.6199 54.9698 28.4699C54.5998 28.3999 53.7998 27.7399 53.4298 28.3999C53.3949 28.4818 53.3831 28.5715 53.3954 28.6596C53.4077 28.7477 53.4438 28.8308 53.4998 28.8999C52.9898 28.9599 52.6298 29.1599 52.7698 29.4999C52.3998 28.4999 51.0798 28.5499 50.1998 28.5499C49.1998 28.5499 48.5798 28.3999 47.7698 28.9899C47.0694 29.5051 46.298 29.916 45.4798 30.2099L43.2698 29.9999C43.1983 29.9418 43.1315 29.8783 43.0698 29.8099C42.921 29.5685 42.7874 29.318 42.6698 29.0599C43.1004 29.0728 43.5191 29.2043 43.8798 29.4399C43.5236 29.1326 43.0787 28.9469 42.6098 28.9099C42.6035 28.8668 42.6035 28.823 42.6098 28.7799C42.6798 28.1899 43.3398 28.4899 43.7098 28.4099C44.0798 28.3299 44.4398 28.5599 44.4398 28.0499C44.4398 27.5399 43.6398 27.6799 43.3398 27.6799C42.6798 27.6799 41.3398 27.5299 41.7998 28.4899C41.8675 28.637 41.9793 28.7593 42.1198 28.8399C41.7444 28.7999 41.3672 28.7799 40.9898 28.7799H38.9898C38.0714 28.4824 37.1365 28.2387 36.1898 28.0499C35.7893 28.0514 35.3923 27.9767 35.0198 27.8299C34.7998 27.6799 34.7198 27.4599 34.4298 27.3099C34.1398 27.1599 33.4298 27.3899 32.9598 27.3099C32.5198 27.4599 32.3698 27.3099 31.9598 27.1699C32.3298 28.3799 31.0898 28.2899 30.0698 28.2199C30.1912 28.2066 30.3096 28.1728 30.4198 28.1199C30.3498 27.6799 26.1598 27.5299 25.9398 28.3399C26.0691 28.4632 26.2177 28.5646 26.3798 28.6399C26.0098 28.5599 25.7898 28.8599 25.4298 28.9299C25.0698 28.9999 24.6898 28.9299 24.3198 28.9999C23.7085 29.1479 23.1176 29.3695 22.5598 29.6599C21.997 29.7764 21.4545 29.9752 20.9498 30.2499C20.4778 30.6979 20.0796 31.2177 19.7698 31.7899C19.2598 32.7899 18.6698 33.6999 18.1498 34.6599C17.9363 34.9467 17.8153 35.2917 17.8028 35.649C17.7903 36.0063 17.8869 36.3589 18.0798 36.6599C18.4548 37.2791 18.7283 37.9543 18.8898 38.6599C18.8898 39.1799 18.1498 39.8399 18.0798 40.4299C18.0098 41.0199 18.5998 41.5299 18.8198 42.0399C19.1198 42.7451 19.4953 43.4157 19.9398 44.0399C20.0998 44.6299 20.2698 45.2199 20.4298 45.7899C20.5898 46.3599 20.7698 47.0699 20.9398 47.7099C20.8687 47.9069 20.7747 48.0949 20.6598 48.2699L20.3598 47.6299C20.0598 46.9599 20.2798 45.7899 19.6998 45.4199C19.7698 46.9599 19.3998 48.8699 19.7698 50.3399C20.1978 52.0637 20.7389 53.7574 21.3898 55.4099C21.7849 56.9127 22.036 58.4496 22.1398 59.9999C22.3046 60.6543 22.5254 61.2934 22.7998 61.9099C23.0153 62.632 23.1856 63.3667 23.3098 64.1099C23.3898 64.4099 23.5298 64.7699 23.6098 65.1099V74.3999L23.4598 74.8099C23.2578 75.5245 23.1338 76.2587 23.0898 76.9999C23.0198 77.5799 22.4298 78.1699 22.3598 78.8299C22.3593 79.3465 22.5049 79.8526 22.7798 80.2899C22.5617 80.8862 22.4206 81.5079 22.3598 82.1399C22.3392 82.7811 22.4693 83.4182 22.7398 83.9999C22.658 84.0641 22.5811 84.1343 22.5098 84.2099C22.0378 84.872 21.6982 85.619 21.5098 86.4099C21.5234 86.7279 21.6391 87.0329 21.8398 87.2799C21.6298 87.9699 21.6898 88.6499 22.2798 88.7999C22.2045 89.1806 22.2609 89.5756 22.4398 89.9199C22.3243 90.2409 22.3069 90.589 22.3898 90.9199C22.5112 90.8001 22.6217 90.6695 22.7198 90.5299C22.4192 91.3347 22.2831 92.1916 22.3198 93.0499C22.3198 93.4799 22.3198 93.8699 22.3198 94.2399C22.2198 94.7599 22.1098 95.2399 21.9998 95.7999V95.9999C21.6268 96.646 21.2929 97.3139 20.9998 97.9999C20.9298 98.4399 20.7798 98.8899 20.7098 99.1799C20.6398 99.4699 20.7798 100.35 20.3398 100.65C20.4773 101.062 20.5679 101.488 20.6098 101.92C20.4298 102.58 20.2398 103.23 20.0498 103.92C19.4555 105.607 19.1184 107.373 19.0498 109.16C18.9808 109.293 18.9271 109.434 18.8898 109.58C18.7498 110.09 19.1898 110.75 18.5998 111.12C18.5998 111.27 18.5998 111.34 18.7498 111.34C18.5298 111.49 18.5298 111.56 18.5298 111.71C18.9698 112 18.7498 112.44 18.8198 112.88C18.8551 113.328 19.0068 113.759 19.2598 114.13C19.3341 114.237 19.4143 114.341 19.4998 114.44C19.0554 114.229 18.5471 114.197 18.0798 114.35C18.1598 114.94 19.3298 115.89 19.8498 116.04C20.4574 116.17 21.0823 116.201 21.6998 116.13C22.2198 116.604 22.8101 116.996 23.4498 117.29C23.5898 117.36 23.6698 117.58 23.8898 117.58C24.1098 117.58 24.1798 117.29 24.4798 117.22C24.9898 117.14 25.5798 117.36 25.9398 116.92C25.2961 116.805 24.6586 116.659 24.0298 116.48C23.7406 116.339 23.4434 116.216 23.1398 116.11H24.8398C25.3075 116.122 25.7755 116.098 26.2398 116.04C26.6098 115.97 26.6798 115.45 27.1198 115.97C27.2877 115.822 27.4647 115.685 27.6498 115.56L27.9298 115.67C29.2162 116.208 30.5575 116.603 31.9298 116.85C32.2251 116.81 32.5244 116.81 32.8198 116.85C33.0398 116.85 33.3998 117.07 33.6198 117.07C34.2531 116.977 34.8716 116.802 35.4598 116.55C35.7498 116.48 36.0498 116.55 36.2698 116.48C36.473 116.397 36.6702 116.3 36.8598 116.19C37.5198 116.04 38.1798 116.19 38.8598 116.04C39.0493 115.929 39.2465 115.833 39.4498 115.75H46.5298C46.7847 115.86 47.045 115.957 47.3098 116.04L47.6298 116.13C47.0307 116.129 46.4324 116.172 45.8398 116.26C44.1685 116.569 42.4682 116.694 40.7698 116.63C41.0598 117.14 43.7098 116.85 44.3698 116.85C45.642 116.775 46.9175 116.775 48.1898 116.85C48.9463 116.975 49.7147 117.012 50.4798 116.96L51.1198 117.12C51.3233 117.208 51.5391 117.266 51.7598 117.29L52.2998 117.44C53.0543 117.552 53.8171 117.599 54.5798 117.58C54.2098 117.66 54.2098 117.36 53.9198 117.29C54.3998 117.29 54.8198 117.22 55.0998 117.22C55.8443 117.176 56.5819 117.052 57.2998 116.85C57.433 116.841 57.5666 116.841 57.6998 116.85C58.8798 117.02 59.9298 117.47 61.1198 117.19C61.5698 117.12 61.9298 116.9 62.3698 116.82C62.9607 116.837 63.552 116.813 64.1398 116.75C64.7998 116.6 65.4598 116.24 66.1398 116.09C65.6298 116.09 64.7198 116.19 63.8698 116.19C64.5452 116.11 65.2138 115.98 65.8698 115.8H68.2898C68.7698 116.71 71.4598 116.8 72.1798 116.8C72.7292 116.822 73.2794 116.782 73.8198 116.68H74.1698C74.9725 116.778 75.7827 116.802 76.5898 116.75C77.4698 116.75 78.2798 117.12 79.0898 117.12C79.7559 117.084 80.4236 117.084 81.0898 117.12C81.6701 117.366 82.3012 117.469 82.9298 117.42C83.4068 117.25 83.899 117.126 84.3998 117.05C84.9121 117.138 85.4376 117.115 85.9398 116.98C85.7198 116.68 84.9398 116.61 84.5398 116.39C84.1398 116.17 83.6598 115.87 83.2898 115.95C83.9698 115.95 84.6598 115.95 85.3498 115.95C86.0398 115.95 86.7198 116.02 87.3498 116.15C89.9765 116.629 92.6861 116.323 95.1398 115.27C95.2526 115.212 95.3696 115.161 95.4898 115.12C96.2819 115.114 97.0732 115.064 97.8598 114.97C98.174 115.025 98.4955 115.025 98.8098 114.97C99.1626 114.887 99.5 114.748 99.8098 114.56C100.333 114.405 100.836 114.19 101.31 113.92L102.01 113.73C101.885 113.773 101.775 113.851 101.692 113.953C101.609 114.056 101.557 114.179 101.54 114.31C102.28 114.31 102.79 112.92 103.6 112.7C103.82 113.21 103.45 113.8 104.04 114.24C103.82 113.24 104.7 112.33 105.04 111.45C105.38 110.57 105.92 109.9 105.78 109.02C105.78 108.88 105.56 108.66 105.48 108.44C105.52 108.195 105.52 107.945 105.48 107.7C105.357 107.195 105.186 106.703 104.97 106.23C104.75 105.35 103.97 104.17 104.09 103.29C103.376 102.005 102.761 100.668 102.25 99.2899C101.66 97.8899 100.56 95.6099 101.25 94.1499C101.375 94.2156 101.487 94.3037 101.58 94.4099C101.38 93.8099 101.19 93.2199 101.03 92.5999C100.948 91.9663 100.902 91.3287 100.89 90.6899C100.84 90.2779 100.759 89.8702 100.65 89.4699C100.39 88.961 100.247 88.4009 100.23 87.8299C100.3 86.8299 99.3398 85.1099 100.15 84.2999C100.399 85.0527 100.735 85.7741 101.15 86.4499V86.4499C101.23 86.5799 101.3 86.7199 101.38 86.8599C101.38 86.3399 101.38 85.8599 101.3 85.1999C101.22 84.1999 101 83.2899 100.93 82.3399C100.93 81.8299 100.27 80.7199 100.86 80.5799C100.957 81.1662 101.097 81.7444 101.28 82.3099C101.144 81.8834 101.05 81.4447 101 80.9999C101 80.1199 100.7 79.3899 100.63 78.5099C100.56 77.5099 100.78 76.3799 100.63 75.3499C100.56 74.9099 100.34 74.6099 100.26 74.1699C100.19 73.8799 100.34 73.5899 100.19 73.2199C99.4498 73.8799 100.04 75.6399 99.1898 76.2199C99.1614 76.1982 99.1376 76.171 99.1198 76.1399V64.7799C99.1198 64.5699 99.2098 64.3599 99.2598 64.1399C99.5767 64.5195 99.781 64.9802 99.8498 65.4699C99.7483 64.4906 99.7752 63.5023 99.9298 62.5299C100.123 61.8343 100.244 61.1205 100.29 60.3999C100.166 59.5685 100.193 58.7217 100.37 57.8999C100.81 57.9699 100.73 59.5199 100.66 60.0299C100.59 60.5399 100.37 60.7599 100.29 61.1299C100.255 61.5692 100.255 62.0106 100.29 62.4499C100.81 62.0899 100.88 61.2799 101.1 60.7599C101.47 59.8799 101.83 58.9999 102.1 58.0499C102.446 56.3261 102.547 54.562 102.4 52.8099C102.32 53.4799 101.99 54.1899 101.88 54.8099C101.822 55.6959 101.623 56.567 101.29 57.3899C101.255 56.9473 101.255 56.5026 101.29 56.0599C101.447 55.5554 101.571 55.0409 101.66 54.5199C101.693 53.0905 101.84 51.666 102.1 50.2599C102.31 49.2599 102.47 48.1799 102.61 47.1199C102.434 47.6224 102.131 48.0705 101.73 48.4199C102.1 48.0599 102.17 47.1799 102.32 46.7299C102.47 46.2799 102.51 45.7299 102.65 45.2699C102.697 45.3359 102.759 45.3905 102.83 45.4299C102.93 44.9099 103.07 44.4299 103.13 43.8699C103.27 43.4699 103.39 43.0799 103.5 42.6899C103.682 43.6405 103.585 44.6236 103.22 45.5199H103.42C104.3 45.3699 105.18 43.9699 105.33 43.0899C105.39 42.6499 105.4 41.3299 104.9 40.9599C105.173 40.6161 105.414 40.2479 105.62 39.8599C105.996 39.0381 106.232 38.1594 106.32 37.2599V37.2599ZM20.8898 51.4399C20.9598 51.0999 21.0298 50.4399 21.4898 50.3399C21.5698 50.6599 21.6298 50.9799 21.6998 51.2899C21.6086 51.4202 21.5084 51.5438 21.3998 51.6599C21.2562 51.8079 21.0988 51.9418 20.9298 52.0599C20.8936 51.8554 20.8802 51.6474 20.8898 51.4399V51.4399ZM20.9598 48.4399H20.9998C21.0798 48.7699 21.1798 49.1099 21.2698 49.4399C21.0667 49.1698 20.8829 48.8858 20.7198 48.5899C20.7983 48.5119 20.8943 48.4536 20.9998 48.4199L20.9598 48.4399ZM20.1498 51.6799C20.0796 51.0151 20.0796 50.3447 20.1498 49.6799C20.216 50.5345 20.4327 51.3707 20.7898 52.1499C20.5098 52.2499 20.2798 52.1699 20.1498 51.6599V51.6799ZM21.1498 52.9599L21.2498 53.1399C21.3764 53.4133 21.5064 53.6733 21.6398 53.9199C21.441 53.6137 21.2799 53.2847 21.1598 52.9399L21.1498 52.9599ZM23.3798 63.5799C23.4498 61.8899 22.4998 60.4199 22.6398 58.6499C22.6398 58.5299 22.7198 58.3099 22.7898 58.0699C22.4959 57.4764 22.3452 56.8222 22.3498 56.1599C22.3498 56.0399 22.3498 55.7599 22.3498 55.4599C22.5098 55.8699 22.6198 56.3299 22.7598 56.7899C22.7598 57.0599 22.8598 57.3299 22.8998 57.5999C22.9398 57.8699 22.7898 57.9199 22.7498 58.0699L22.9698 58.6499C23.0298 58.7899 23.0798 58.9799 23.1398 59.1799C23.2898 60.1799 23.4398 61.1799 23.5598 62.1799V63.2799C23.4985 63.3704 23.4418 63.4638 23.3898 63.5599L23.3798 63.5799ZM74.4098 116.39L74.5698 116.33C74.8152 116.363 75.0622 116.383 75.3098 116.39H74.4098Z" fill="#9EBECF"/>
<path d="M102.72 98.2992C102.72 96.8841 102.209 95.5166 101.28 94.4492C101.47 94.9892 101.66 95.5292 101.83 96.0892C102 96.6492 102.2 97.8592 102.72 98.2992Z" fill="#9EBECF"/>
<path d="M101 82.3301C101.018 82.5115 101.103 82.6794 101.24 82.8001C101.134 82.6584 101.052 82.4994 101 82.3301V82.3301Z" fill="#9EBECF"/>
<path d="M102.42 52.2402C102.42 52.4302 102.42 52.6202 102.42 52.8102C102.45 52.6214 102.45 52.4291 102.42 52.2402V52.2402Z" fill="#9EBECF"/>
<path d="M99.8501 65.4707C99.8501 66.0607 99.9301 66.6407 99.9301 67.1507C99.9496 66.5895 99.9228 66.0276 99.8501 65.4707V65.4707Z" fill="#9EBECF"/>
<path d="M101 86.7702C100.969 86.6746 100.932 86.5811 100.89 86.4902C100.06 86.6702 100.27 87.8802 100.27 88.4902C100.274 88.8275 100.317 89.1632 100.4 89.4902C100.64 89.9902 100.94 90.4902 101.22 90.9302C102.22 92.3302 102.22 90.4902 102.11 89.6802C101.978 88.6806 101.637 87.7198 101.11 86.8602C101.11 87.0702 101.11 87.2802 101.18 87.5002L101 86.7702Z" fill="#9EBECF"/>
<path d="M102.86 45.4297C102.86 45.5897 102.86 45.7497 102.79 45.9297C102.79 46.3297 102.69 46.7197 102.64 47.1197C102.878 46.5935 103.082 46.0523 103.25 45.4997C103.117 45.5043 102.984 45.4805 102.86 45.4297V45.4297Z" fill="#9EBECF"/>
<path d="M32 41.6993C35.62 41.5593 39.31 42.9593 43 42.5793C47.5242 41.9893 52.1058 41.9893 56.63 42.5793C60.6658 43.179 64.7788 43.0059 68.75 42.0693C72.75 41.1793 77.12 42.2793 81.14 42.4193C85.66 42.5793 90.41 42.1093 94.93 42.2693" fill="#E5EBEF"/>
<path d="M93.4999 24.8999C93.082 24.2051 92.6211 23.5371 92.1199 22.8999L92.3399 22.7299C92.1399 22.4999 91.8399 22.4399 91.6099 22.2099C91.3799 21.9799 91.1799 21.6399 90.9499 21.3999C90.8844 21.3251 90.8022 21.2668 90.7099 21.2299C89.7099 20.2299 88.7099 19.1599 87.5999 18.2299C87.3899 17.9599 87.1699 17.6999 86.9699 17.4299C86.7998 17.2149 86.5754 17.0492 86.3199 16.9499H86.1399C85.2299 16.1599 84.3199 15.4099 83.4399 14.6899C83.3599 14.5499 83.2599 14.4099 83.1899 14.2699C83.0614 13.956 82.904 13.6547 82.7199 13.3699C82.2917 12.8501 81.8127 12.3744 81.2899 11.9499C80.7099 11.4199 80.1799 10.7899 79.5999 10.2499C79.2138 9.81595 78.8784 9.33957 78.5999 8.8299C78.1822 8.29525 77.6301 7.88113 76.9999 7.6299C76.4699 7.3599 75.8599 7.3599 75.3899 6.9599C74.944 6.52642 74.5451 6.0471 74.1999 5.5299C73.8664 5.17478 73.4902 4.86239 73.0799 4.5999C72.3806 4.27403 71.5938 4.18622 70.8399 4.3499C70.5351 4.45189 70.2198 4.51899 69.8999 4.5499H67.4399C67.1782 4.56058 66.9221 4.62887 66.6899 4.7499C66.4699 4.8099 66.3299 4.7499 66.0999 4.8799C65.8699 5.0099 65.9099 5.0899 65.7899 5.1699C65.5965 5.29735 65.3924 5.40777 65.1799 5.4999C64.7953 5.59782 64.4229 5.73871 64.0699 5.9199C63.8599 6.0799 63.6899 6.2499 63.4599 6.3999C62.8999 6.7499 62.6199 7.3299 62.0999 7.7199C61.8305 7.89209 61.5732 8.08254 61.3299 8.2899C61.3341 8.3063 61.3341 8.3235 61.3299 8.3399C60.6474 8.73537 59.9091 9.02532 59.1399 9.1999L58.7299 9.2699C58.561 9.19501 58.3872 9.13153 58.2099 9.0799C57.8309 9.0399 57.4488 9.0399 57.0699 9.0799C56.6909 9.03997 56.3088 9.03997 55.9299 9.0799H55.5499C55.4299 9.0799 55.2199 9.2099 55.1299 9.2299C54.7452 9.26597 54.366 9.34651 53.9999 9.4699C53.7999 9.5499 53.5899 9.7399 53.3899 9.8099C52.7991 9.91696 52.2149 10.0572 51.6399 10.2299C51.3499 10.3599 51.0299 10.4399 50.7399 10.5599C50.4923 10.6781 50.2686 10.8408 50.0799 11.0399C49.6477 11.284 49.259 11.5983 48.9299 11.9699C48.7599 12.2099 48.7399 12.4499 48.4699 12.6499C48.1874 12.8122 47.8848 12.9366 47.5699 13.0199C46.8599 13.2299 46.2199 13.5999 46.2399 14.3899C46.2599 15.1799 45.6599 15.1699 45.3299 15.7599C45.1899 15.9999 45.1999 16.3399 45.0599 16.6199C44.9199 16.8999 44.7899 16.9899 44.6699 17.1799C44.5475 17.4751 44.3594 17.7384 44.1199 17.9499C43.8525 18.0712 43.5787 18.178 43.2999 18.2699C43.0563 18.3905 42.8335 18.5492 42.6399 18.7399C42.4808 18.9683 42.3404 19.209 42.2199 19.4599C42.0391 19.688 41.7904 19.8526 41.5099 19.9299C41.3233 20.0011 41.1284 20.0482 40.9299 20.0699C40.7999 20.0699 40.6099 20.1999 40.5199 20.2199C39.9588 20.2919 39.4123 20.4504 38.8999 20.6899C38.6268 20.8024 38.3837 20.977 38.1899 21.1999C38.0099 21.4399 38.0299 21.6499 37.7299 21.8299C37.4214 21.9622 37.1039 22.0725 36.7799 22.1599C36.6482 22.1779 36.5179 22.2046 36.3899 22.2399C36.3099 22.2399 36.2499 22.4299 36.1699 22.4899C35.8999 22.6899 35.5099 22.8399 35.1699 23.0499C34.9036 23.2221 34.6497 23.4125 34.4099 23.6199C34.1851 23.7758 34.0029 23.9855 33.8799 24.2299C33.8599 24.4528 33.8599 24.677 33.8799 24.8999C33.8749 24.933 33.8749 24.9667 33.8799 24.9999C33.6348 25.3319 33.4581 25.7092 33.3599 26.1099H34.1199C34.4799 26.3599 35.0599 26.2399 35.4399 26.3299C35.6699 26.3899 35.7399 26.5099 35.9999 26.5399C36.253 26.5548 36.5067 26.5548 36.7599 26.5399C37.0126 26.5149 37.2671 26.5149 37.5199 26.5399C37.7599 26.5999 37.7999 26.7099 38.0799 26.7499C38.5552 26.7999 39.0345 26.7999 39.5099 26.7499C39.8806 26.6534 40.2585 26.5865 40.6399 26.5499C40.8632 26.5544 41.0859 26.524 41.2999 26.4599C41.5215 26.4181 41.7451 26.3881 41.9699 26.3699C42.1699 26.3699 42.2399 26.2099 42.4199 26.1599C42.6759 26.1351 42.9338 26.1351 43.1899 26.1599C43.3999 26.1599 45.7099 26.8199 45.8699 26.7699L83.3099 27.5999H83.5899L90.2199 27.2399C91.0599 26.6699 92.5699 25.1999 93.4999 24.8999Z" fill="#9EBECF"/>
<path d="M58.6398 79.0503C58.5298 78.6503 58.3998 78.2603 58.2598 77.8803V77.7403L57.6198 76.0003L56.4398 74.6003V74.5403C55.8494 73.7503 55.1792 73.0231 54.4398 72.3703V72.3703L54.0298 71.6003L52.2198 70.7803C50.9783 70.0546 49.6275 69.5345 48.2198 69.2403H47.9998L47.1698 68.9203H42.7198L41.5798 68.5703L40.7198 68.9603H40.1498H39.5698L39.3598 69.5403V73.0203L39.0898 73.3103L39.4498 75.9303C39.4498 76.0403 39.4498 76.1503 39.4498 76.2703C39.5048 76.8453 39.595 77.4164 39.7198 77.9803V78.0703V78.1403C39.8441 78.6619 39.9977 79.176 40.1798 79.6803V79.8203L40.3798 81.0603L41.4698 82.3803L41.6198 82.6003L42.0298 83.1803L42.1298 83.3103V83.7803H42.5098C42.7798 84.1103 43.0698 84.4303 43.3698 84.7803L43.4498 84.8703L43.8398 85.2403C44.197 85.5661 44.5709 85.8732 44.9598 86.1603L45.0598 86.2403L45.2398 86.3603L45.9898 86.8603L46.1898 86.9803H46.2598C46.8307 87.3141 47.4257 87.6049 48.0398 87.8503H48.1298H48.2098L48.7398 88.0403L49.0798 88.1503H49.1598L49.3298 88.2103C49.8098 88.3403 50.3298 88.4503 50.8098 88.5403L51.9698 88.8203H56.9998L59.3398 86.4803V81.0803L58.6398 79.0503Z" fill="#E5EBEF"/>
<path d="M57 88.8507L54.84 87.1107L53.35 85.4807L51.43 83.4807L50.7 82.7907L48.84 81.0007L47.84 79.3707L47.42 78.0007L47 76.4707L49.18 77.0107L51.18 78.0107L52.32 79.6607C52.32 79.6607 52.9 79.5207 52.81 79.7907C52.72 80.0607 53.25 80.4407 53.25 80.4407L53.81 81.1607L55.28 82.6407L57.67 84.5507L58.84 86.2107L59.38 86.4907L57 88.8507Z" fill="#9EBECF"/>
<path d="M85.7899 71.8L85.7299 70.55L85.7899 69.44V67.8C85.7899 65.64 85.7899 63.49 85.7899 61.33L85.5599 59.71L83.6699 59.5L82.5499 59.71L82.1199 59.5L80.5699 59.71H75.0499C74.233 59.7128 73.4174 59.7764 72.6099 59.9C72.3199 59.95 72.0399 60.03 71.7599 60.09H71.4999L71.1899 60.19C69.9094 60.4726 68.6599 60.8813 67.4599 61.41L64.8299 62.28L64.4299 63.12L63.5799 63.53L61.5799 65.71L60.5799 66.54L59.4999 68.45C59.4099 68.59 59.3399 68.74 59.2499 68.88L58.6099 70.02V70.1C58.4999 70.3 58.3899 70.48 58.2899 70.69C58.2089 70.816 58.1755 70.9668 58.1957 71.1153C58.2158 71.2637 58.2882 71.4001 58.3999 71.5C58.7099 71.83 58.9999 72.19 59.2799 72.5L59.8499 73.29L60.1499 73.73V74.21L61.3399 75.99C61.3899 76.09 61.4199 76.18 61.4599 76.28L62.7799 80.53L62.8499 82.83L62.4399 86.17L62.6399 88.78L65.4299 88.97L66.4299 88.78H68.6299L68.6999 88.99L70.1099 88.56C71.8483 88.3066 73.5358 87.7801 75.1099 87H75.2499L75.3799 86.91L75.7899 86.72C77.1991 85.9383 78.5171 85.0025 79.7199 83.93V83.93H79.7699L80.5199 83.21H80.9499L82.6599 80.55L82.7799 80.37L82.9799 80.05L83.7499 78.61C83.7499 78.55 83.8099 78.5 83.8299 78.45L84.5699 77.51C84.5371 77.1775 84.5371 76.8425 84.5699 76.51C84.5664 76.4834 84.5664 76.4566 84.5699 76.43C84.9624 75.1493 85.227 73.8329 85.3599 72.5L85.7899 71.8Z" fill="#E5EBEF"/>
<path d="M62.6401 84.8109C62.6401 84.8109 62.8701 81.8109 62.8101 80.6009L66.1701 77.0009L67.9201 75.4909L69.7801 73.6209L71.4001 72.0009L72.5801 70.2709L73.0201 69.9309L73.7401 69.4609L76.7401 68.8809V70.5109L75.7401 72.0109L74.1201 73.9509L73.6401 74.3009L71.5501 76.4909L71.0001 77.0009L70.0801 78.0709L69.3701 78.6109L67.5201 80.6909L65.4301 82.6909L63.2201 84.5509L62.6401 84.8109Z" fill="#9EBECF"/>
</svg>
