<svg width="18" height="18" viewBox="0 0 18 18" fill="none" xmlns="http://www.w3.org/2000/svg">
<path d="M8.25 10.3125C8.25 10.0028 7.9965 9.75 7.6875 9.75H4.875V12C4.875 12.414 4.539 12.75 4.125 12.75C3.711 12.75 3.375 12.414 3.375 12V9.75H0.5625C0.25275 9.75 0 10.0028 0 10.3125V17.4375C0 17.7473 0.25275 18 0.5625 18H7.6875C7.9965 18 8.25 17.7473 8.25 17.4375V10.3125Z" fill="#5691AE"/>
<path d="M18 10.3125C18 10.0028 17.7465 9.75 17.4375 9.75H14.625V12C14.625 12.414 14.289 12.75 13.875 12.75C13.461 12.75 13.125 12.414 13.125 12V9.75H10.3125C10.0028 9.75 9.75 10.0028 9.75 10.3125V17.4375C9.75 17.7473 10.0028 18 10.3125 18H17.4375C17.7465 18 18 17.7473 18 17.4375V10.3125Z" fill="#5691AE"/>
<path d="M13.125 0.5625C13.125 0.2535 12.8715 0 12.5625 0H9.75V2.25C9.75 2.664 9.414 3 9 3C8.586 3 8.25 2.664 8.25 2.25V0H5.4375C5.12775 0 4.875 0.2535 4.875 0.5625V7.6875C4.875 7.99725 5.12775 8.25 5.4375 8.25H12.5625C12.8715 8.25 13.125 7.99725 13.125 7.6875V0.5625Z" fill="#5691AE"/>
</svg>
