<svg width="23" height="19" viewBox="0 0 23 19" fill="none" xmlns="http://www.w3.org/2000/svg">
<path d="M18.8334 10.2305H17.1321C17.3055 10.7053 17.4003 11.2176 17.4003 11.7517V18.1817C17.4003 18.4043 17.3615 18.618 17.291 18.8168H20.1037C21.1543 18.8168 22.0091 17.962 22.0091 16.9114V13.4061C22.0091 11.6551 20.5845 10.2305 18.8334 10.2305Z" fill="#5691AE"/>
<path d="M4.61891 11.7517C4.61891 11.2176 4.71365 10.7053 4.88707 10.2305H3.18575C1.43468 10.2305 0.0100708 11.6551 0.0100708 13.4061V16.9114C0.0100708 17.9621 0.864811 18.8168 1.91548 18.8168H4.72818C4.65767 18.618 4.61891 18.4043 4.61891 18.1817V11.7517V11.7517Z" fill="#5691AE"/>
<path d="M12.9543 8.57617H9.06487C7.31379 8.57617 5.88918 10.0008 5.88918 11.7519V18.1818C5.88918 18.5326 6.17354 18.817 6.52432 18.817H15.4949C15.8456 18.817 16.13 18.5326 16.13 18.1818V11.7519C16.13 10.0008 14.7054 8.57617 12.9543 8.57617Z" fill="#5691AE"/>
<path d="M11.0096 0.155762C8.9037 0.155762 7.19044 1.86902 7.19044 3.97496C7.19044 5.40339 7.97883 6.65093 9.14315 7.30592C9.6954 7.61657 10.3321 7.79411 11.0096 7.79411C11.6871 7.79411 12.3238 7.61657 12.876 7.30592C14.0404 6.65093 14.8287 5.40335 14.8287 3.97496C14.8287 1.86907 13.1155 0.155762 11.0096 0.155762Z" fill="#5691AE"/>
<path d="M4.30323 3.71533C2.72828 3.71533 1.44701 4.9966 1.44701 6.57155C1.44701 8.1465 2.72828 9.42778 4.30323 9.42778C4.70274 9.42778 5.08317 9.34502 5.42875 9.19627C6.02625 8.93903 6.51891 8.48367 6.82376 7.91328C7.03773 7.51296 7.15946 7.05626 7.15946 6.57155C7.15946 4.99665 5.87818 3.71533 4.30323 3.71533Z" fill="#5691AE"/>
<path d="M17.7159 3.71533C16.141 3.71533 14.8597 4.9966 14.8597 6.57155C14.8597 7.05631 14.9814 7.513 15.1954 7.91328C15.5003 8.48371 15.9929 8.93907 16.5904 9.19627C16.936 9.34502 17.3164 9.42778 17.7159 9.42778C19.2909 9.42778 20.5722 8.1465 20.5722 6.57155C20.5722 4.9966 19.2909 3.71533 17.7159 3.71533Z" fill="#5691AE"/>
</svg>
